<?xml version="1.0" standalone="no"?>
<!DOCTYPE svg PUBLIC "-//W3C//DTD SVG 20010904//EN"
 "http://www.w3.org/TR/2001/REC-SVG-20010904/DTD/svg10.dtd">
<svg version="1.0" xmlns="http://www.w3.org/2000/svg"
 width="512.000000pt" height="512.000000pt" viewBox="0 0 512.000000 512.000000"
 preserveAspectRatio="xMidYMid meet">
<metadata>
Created by potrace 1.11, written by Peter Selinger 2001-2013
</metadata>
<g transform="translate(0.000000,512.000000) scale(0.100000,-0.100000)"
fill="#000000" stroke="none">
<path d="M4767 4199 c7 -7 15 -10 18 -7 3 3 -2 9 -12 12 -14 6 -15 5 -6 -5z"/>
<path d="M4630 4161 c0 -6 4 -13 10 -16 6 -3 7 1 4 9 -7 18 -14 21 -14 7z"/>
<path d="M4760 4138 c0 -5 -4 -8 -9 -8 -5 0 -22 -5 -38 -12 -15 -6 -31 -11
-35 -10 -5 1 -8 -4 -8 -12 0 -11 -7 -13 -30 -6 -19 5 -28 5 -25 -1 4 -5 13 -9
22 -9 13 0 13 -3 2 -16 -7 -8 -21 -13 -31 -11 -10 3 -16 1 -12 -4 3 -5 0 -17
-5 -26 -6 -10 -11 -15 -11 -11 0 4 -14 -7 -31 -24 -24 -25 -32 -29 -39 -18 -5
7 -18 14 -29 15 -11 1 -18 -2 -15 -7 4 -5 12 -7 18 -5 7 3 18 -4 25 -15 7 -11
8 -17 2 -13 -6 3 -11 1 -11 -4 0 -6 -9 -11 -20 -11 -11 0 -20 -5 -20 -11 0 -5
-5 -7 -12 -3 -7 4 -8 3 -4 -5 6 -9 11 -9 22 0 8 7 14 7 14 1 0 -15 -31 -24
-45 -12 -18 15 -32 -7 -16 -23 9 -9 10 -7 5 8 -7 18 -6 18 9 7 13 -11 14 -17
4 -27 -7 -7 -16 -9 -22 -5 -13 10 -41 8 -52 -5 -4 -4 -2 -5 5 -1 6 4 12 3 12
-3 0 -5 -6 -12 -12 -14 -10 -4 -10 -6 0 -6 7 -1 15 6 18 14 4 8 10 15 15 15 5
0 9 -7 9 -15 0 -8 -5 -15 -11 -15 -5 0 -7 -5 -3 -12 4 -6 3 -9 -2 -6 -10 7
-36 -17 -27 -25 2 -3 -14 -25 -36 -50 -22 -24 -37 -48 -33 -52 4 -5 1 -5 -6
-1 -6 4 -10 17 -8 29 1 12 1 16 -1 9 -3 -7 -9 -9 -15 -6 -6 4 -5 -3 2 -15 8
-16 8 -26 1 -35 -6 -7 -10 -15 -8 -17 1 -2 -3 2 -10 9 -7 8 -13 10 -17 3 -4
-6 -12 -8 -19 -5 -7 2 -21 -2 -32 -11 -17 -12 -17 -14 -2 -9 13 5 16 2 11 -10
-3 -9 -11 -13 -16 -10 -6 4 -5 -3 1 -15 13 -23 26 -27 36 -11 3 6 -1 7 -9 4
-9 -3 -16 -1 -16 6 0 6 5 8 10 5 7 -4 9 3 6 18 -3 20 0 25 20 25 32 0 30 -19
-5 -57 -17 -18 -30 -34 -31 -36 -3 -17 -19 -48 -19 -38 -1 14 -43 13 -53 -2
-5 -6 -8 -6 -8 3 0 6 -5 12 -12 12 -9 0 -9 -3 0 -12 20 -20 13 -32 -8 -13 -11
10 -20 13 -20 7 0 -7 4 -12 8 -12 5 0 9 -7 9 -15 0 -22 -15 -18 -22 6 -4 12
-10 17 -14 12 -11 -17 -40 -23 -48 -10 -6 10 -13 8 -27 -7 -16 -15 -16 -18 -3
-13 11 4 23 -4 39 -26 l22 -32 -22 19 c-20 18 -32 22 -79 28 -7 1 -10 5 -7 10
3 5 8 7 12 4 4 -2 16 6 27 16 19 19 17 19 -23 -1 l-44 -22 7 23 c5 19 4 20 -4
6 -10 -15 -51 -15 -51 1 0 4 -8 7 -17 8 -10 1 -25 3 -33 6 -8 2 -28 7 -45 12
-16 4 -34 10 -40 13 -5 4 -18 7 -29 8 -11 0 -22 6 -24 12 -2 7 -8 12 -14 12
-6 0 -17 8 -25 18 -13 15 -13 15 -3 -5 7 -16 7 -23 0 -23 -5 0 -10 4 -10 9 0
5 -7 12 -16 15 -9 3 -12 2 -9 -5 7 -10 -27 -5 -72 12 -13 5 -23 5 -23 1 -1 -4
-8 4 -16 18 -8 14 -13 17 -10 8 4 -12 -1 -16 -18 -14 -12 1 -26 5 -31 8 -6 3
-18 4 -27 3 -16 -3 -20 2 -17 21 1 8 -22 24 -34 24 -5 0 -1 -7 8 -16 20 -21
11 -31 -12 -13 -9 8 -14 9 -10 2 5 -7 1 -9 -12 -6 -10 3 -24 14 -30 26 -6 12
-9 14 -7 5 6 -21 -9 -32 -26 -21 -7 4 -31 9 -52 10 -22 2 -45 8 -53 14 -8 8
-13 8 -13 1 0 -15 -30 -8 -41 9 -5 8 -9 9 -9 4 0 -6 -16 -11 -35 -12 -19 0
-35 3 -35 8 0 4 9 6 20 4 17 -3 19 -1 10 16 -13 23 -22 26 -13 4 3 -9 2 -15
-3 -14 -5 1 -13 0 -19 -1 -26 -8 -115 -5 -115 3 0 5 8 6 18 2 13 -5 14 -3 6 5
-9 9 -17 8 -34 -2 -18 -10 -24 -10 -27 0 -3 6 -9 12 -14 12 -6 0 -8 -4 -5 -8
7 -11 -81 -9 -91 2 -5 5 -2 6 7 1 9 -5 12 -5 7 1 -5 5 -14 9 -20 9 -7 0 -11 9
-10 19 1 13 -2 15 -10 7 -7 -7 -6 -15 3 -26 17 -21 6 -30 -13 -10 -20 20 -28
19 -21 -2 5 -15 3 -15 -10 1 -9 11 -16 15 -16 8 0 -6 -11 -11 -24 -10 -14 1
-22 7 -19 13 4 5 -3 2 -14 -8 -14 -12 -23 -15 -28 -7 -3 5 -11 8 -16 5 -5 -4
-9 0 -9 7 0 11 -2 11 -9 0 -4 -8 -19 -11 -34 -8 -15 2 -29 0 -33 -5 -3 -6 -10
-6 -17 -1 -7 5 -21 8 -32 6 -11 -2 -26 4 -34 14 -13 16 -13 16 -8 0 3 -10 2
-20 -3 -23 -6 -4 -10 -1 -10 6 0 8 -4 9 -13 0 -10 -8 -17 -7 -25 1 -8 8 -12 8
-12 1 0 -11 -108 -12 -127 0 -6 4 -15 2 -19 -4 -5 -8 -3 -9 7 -4 8 5 11 4 6 0
-7 -8 -47 -15 -47 -8 0 7 39 41 43 37 2 -2 4 3 4 12 0 10 -12 3 -34 -21 -19
-21 -37 -35 -40 -31 -3 3 -1 12 6 19 9 11 7 17 -6 28 -16 13 -17 12 -4 -3 11
-15 11 -19 -3 -24 -9 -3 -13 -10 -10 -15 3 -5 -5 -9 -18 -9 -43 1 -116 -8
-128 -15 -6 -4 -18 1 -26 11 -10 14 -13 15 -9 3 4 -10 0 -16 -9 -16 -8 0 -12
5 -9 11 5 8 2 8 -8 0 -8 -6 -28 -16 -46 -22 -25 -8 -34 -8 -44 4 -6 8 -17 14
-23 13 -7 0 -6 -2 2 -6 24 -9 12 -23 -18 -19 -16 2 -30 -1 -30 -6 0 -6 -9 -8
-20 -5 -11 3 -22 1 -25 -3 -3 -4 -18 -7 -35 -6 -16 1 -31 -1 -32 -4 -2 -4 -18
-10 -36 -13 -21 -4 -31 -3 -27 3 3 6 2 10 -3 10 -6 0 -13 -7 -16 -16 -3 -9
-13 -14 -21 -10 -8 3 -17 1 -20 -5 -4 -5 -12 -9 -18 -7 -7 1 -23 -2 -36 -6
-19 -6 -28 -4 -38 10 -7 10 -13 14 -13 8 -1 -18 -29 -46 -40 -39 -6 4 -3 13
11 24 17 14 19 18 6 18 -9 0 -14 -4 -12 -8 3 -4 -2 -9 -10 -13 -8 -3 -12 -11
-10 -18 4 -10 -5 -14 -27 -16 -18 -2 -35 -7 -36 -12 -2 -6 -8 -8 -13 -4 -5 3
-6 10 -2 17 10 16 10 56 0 50 -5 -3 -7 -14 -4 -24 5 -19 -19 -40 -53 -45 -8
-2 -19 -10 -25 -18 -10 -13 -12 -12 -21 2 -9 13 -12 13 -19 2 -5 -9 -4 -11 3
-6 7 4 12 1 12 -9 0 -11 -5 -15 -15 -11 -9 3 -18 0 -21 -8 -4 -10 -49 -16 -49
-7 0 2 -8 4 -18 6 -9 2 -15 -1 -11 -6 3 -5 0 -9 -5 -9 -6 0 -11 -7 -11 -15 0
-20 -39 -35 -66 -25 -15 6 -21 4 -21 -6 0 -9 6 -13 16 -9 13 5 13 4 4 -6 -10
-10 -17 -9 -34 7 -22 19 -22 19 -10 -3 11 -22 6 -28 -21 -24 -4 0 -19 -10 -34
-24 -15 -14 -33 -25 -40 -25 -8 0 -14 -4 -14 -9 0 -5 -8 -8 -17 -7 -10 0 -17
-4 -16 -9 1 -6 -8 -12 -19 -12 -18 -2 -19 0 -6 15 8 9 18 24 22 32 5 10 2 9
-7 -2 -11 -14 -16 -15 -27 -5 -12 10 -12 9 -2 -5 9 -11 10 -18 2 -23 -8 -5 -8
-11 1 -21 9 -11 7 -14 -10 -14 -14 0 -20 -4 -15 -12 4 -6 3 -8 -4 -4 -5 3 -12
0 -15 -6 -3 -10 -8 -10 -23 2 -15 11 -16 11 -6 0 17 -20 15 -35 -3 -20 -13 11
-14 10 -9 -5 5 -13 4 -16 -4 -11 -7 4 -12 1 -12 -7 0 -8 -9 -22 -20 -32 -19
-17 -21 -17 -42 1 -19 16 -20 16 -9 1 12 -15 11 -20 -4 -37 -10 -11 -13 -20
-8 -20 6 0 14 7 17 16 4 9 9 14 12 11 9 -9 -36 -68 -47 -62 -8 6 -13 -7 -11
-27 1 -3 -5 -12 -13 -18 -8 -7 -15 -19 -15 -27 0 -7 -7 -16 -15 -19 -8 -4 -12
-10 -9 -15 3 -6 0 -16 -6 -24 -7 -8 -10 -15 -6 -15 3 0 1 -12 -5 -27 -10 -25
-20 -100 -20 -146 0 -15 -3 -16 -15 -6 -12 10 -12 14 -2 20 7 4 10 11 6 14 -9
9 -49 -36 -42 -47 3 -5 11 -4 19 2 10 8 13 5 13 -15 0 -22 -3 -24 -17 -13 -9
7 -13 9 -9 4 4 -4 3 -19 -2 -32 -5 -13 -6 -24 -1 -24 4 0 7 -11 5 -25 -1 -17
4 -29 17 -35 13 -7 19 -7 19 0 0 5 -8 10 -17 10 -17 1 -17 1 0 14 15 12 15 15
2 26 -20 17 -19 45 3 47 15 1 18 -8 20 -65 1 -37 3 -80 5 -97 2 -16 -1 -36 -7
-44 -8 -11 -8 -13 0 -8 7 4 15 0 18 -8 3 -9 -1 -18 -9 -21 -8 -4 -12 -10 -9
-15 3 -5 1 -9 -4 -9 -8 0 -22 22 -22 35 0 2 10 1 22 -1 22 -4 22 -4 -1 6 -22
10 -22 11 -7 34 14 22 14 25 -1 30 -9 4 -21 1 -27 -5 -8 -8 -8 -13 2 -16 6 -3
12 -9 12 -14 0 -6 -4 -8 -9 -5 -4 3 -8 -7 -7 -22 1 -22 -3 -27 -21 -26 -13 1
-20 -2 -18 -6 3 -5 13 -7 23 -5 9 1 25 -2 35 -7 12 -6 24 -5 35 3 9 8 14 10
10 5 -4 -4 -2 -20 4 -35 10 -27 20 -82 19 -115 0 -10 7 -28 15 -41 8 -13 11
-30 8 -40 -6 -14 -4 -16 7 -10 12 8 12 6 0 -8 -9 -11 -10 -17 -2 -17 6 0 11
-15 11 -32 0 -25 3 -29 10 -18 8 13 10 13 10 -2 0 -10 -7 -16 -18 -15 -14 1
-18 8 -17 29 1 17 -5 33 -14 38 -13 8 -13 9 -2 10 11 0 9 4 -5 15 -10 8 -14
15 -9 15 6 0 3 5 -5 10 -20 13 -30 12 -30 -1 0 -5 5 -7 11 -3 7 4 10 1 7 -7
-3 -8 1 -22 10 -31 13 -15 13 -20 1 -35 -9 -11 -10 -14 -1 -9 7 4 12 2 12 -4
0 -6 5 -8 10 -5 6 3 10 1 10 -4 0 -6 -5 -11 -11 -11 -6 0 -9 -7 -6 -15 4 -8 2
-17 -3 -20 -6 -4 -10 -11 -10 -17 0 -6 11 2 24 17 l24 28 -2 -44 c-1 -24 -6
-50 -10 -58 -6 -10 -5 -12 2 -7 7 4 12 2 12 -3 0 -19 19 -12 31 10 6 12 7 19
2 16 -5 -4 -10 -1 -11 6 0 7 -3 26 -6 42 -3 17 -3 24 0 17 3 -6 11 -9 17 -5 7
4 5 -2 -3 -12 -14 -17 -13 -18 5 -11 11 4 16 4 12 0 -4 -4 -2 -13 4 -21 6 -7
8 -13 3 -13 -4 0 1 -7 12 -15 13 -11 14 -14 4 -13 -8 2 -19 8 -23 13 -5 6 -5
0 -2 -13 4 -12 3 -22 -2 -21 -4 1 -17 1 -28 0 -19 -2 -18 -3 3 -11 24 -10 28
-20 11 -37 -16 -16 -2 -34 19 -26 14 6 15 4 4 -9 -7 -8 -10 -23 -6 -31 5 -13
0 -15 -23 -11 -19 3 -24 2 -14 -5 8 -5 22 -8 32 -6 10 2 21 0 24 -6 4 -5 1 -9
-6 -9 -7 0 -10 -3 -6 -6 3 -3 10 -3 16 1 7 4 5 14 -5 31 -24 36 -11 39 15 3
17 -23 20 -33 11 -39 -10 -6 -10 -12 0 -26 10 -17 11 -17 6 -1 -3 10 0 20 8
23 8 3 12 17 11 34 -1 16 1 27 6 24 5 -3 6 3 3 13 -3 10 2 5 11 -12 10 -16 24
-36 33 -42 13 -11 13 -13 1 -13 -12 0 -12 -2 1 -11 12 -9 11 -10 -5 -5 -19 6
-19 5 -2 -8 9 -7 17 -21 17 -30 0 -9 3 -15 8 -15 4 1 10 0 15 -1 4 -1 12 -3
19 -4 6 0 12 -10 14 -20 1 -10 8 -22 14 -26 6 -4 10 -11 9 -16 -3 -19 1 -29 9
-18 5 8 11 7 22 -4 13 -14 12 -15 -2 -10 -18 7 -34 -17 -18 -27 6 -4 10 -1 10
4 0 6 7 11 15 11 9 0 14 -8 12 -20 -4 -28 -12 -33 -26 -16 -7 8 -18 14 -24 12
-7 -1 -8 -1 -4 2 4 2 3 10 -4 18 -6 8 -13 27 -14 44 -4 43 -23 64 -43 48 -10
-8 -13 -9 -9 -1 5 7 1 9 -12 6 -23 -6 -38 14 -21 30 9 9 11 9 8 -2 -2 -7 3
-15 10 -17 7 -1 8 0 3 2 -6 3 -7 12 -4 20 5 13 -8 19 -31 15 -5 -1 -1 9 8 24
17 26 12 32 -13 16 -8 -5 -15 -24 -16 -43 -2 -18 -1 -25 2 -15 2 9 9 15 14 11
6 -3 3 -16 -7 -32 -9 -15 -13 -24 -9 -19 5 4 17 -1 28 -10 11 -10 17 -12 13
-5 -4 7 -1 12 8 12 20 0 20 -5 -1 -26 -13 -13 -14 -16 -3 -12 18 6 70 -18 70
-33 0 -7 -10 -5 -25 5 -13 9 -28 16 -32 16 -4 0 4 -8 20 -18 15 -10 24 -23 20
-27 -5 -5 0 -3 10 4 28 22 19 -1 -10 -24 -19 -16 -22 -22 -10 -22 9 0 14 4 12
8 -6 9 16 17 33 12 6 -3 9 -10 5 -16 -4 -7 1 -6 10 2 10 8 17 9 17 3 0 -6 -5
-14 -11 -18 -6 -3 2 -14 20 -25 32 -19 42 -35 17 -26 -10 4 -13 1 -9 -9 4 -11
9 -12 16 -5 21 21 30 11 11 -11 -17 -21 -17 -21 8 1 29 25 29 44 0 35 -14 -5
-15 -4 -2 5 12 8 9 12 -17 17 -18 4 -33 11 -33 16 0 5 9 6 20 3 11 -4 20 -3
19 2 -4 21 3 57 8 43 3 -8 12 -20 21 -27 12 -10 12 -15 3 -27 -8 -10 -9 -16
-1 -21 5 -3 10 -1 10 5 0 6 4 9 9 6 5 -4 12 0 14 6 3 7 4 -2 3 -20 -2 -18 0
-35 5 -38 8 -5 13 10 10 29 -2 12 6 8 20 -10 12 -14 12 -16 0 -8 -11 6 -13 4
-8 -7 3 -9 -2 -23 -13 -33 -11 -10 -17 -22 -14 -26 3 -5 -5 -9 -18 -10 -13 0
-17 -3 -10 -6 7 -3 20 -1 30 3 20 9 28 11 43 13 5 0 7 6 3 12 -5 8 -9 8 -14
-1 -5 -8 -10 -9 -14 -2 -3 6 3 13 14 17 12 4 17 11 13 18 -4 7 2 5 13 -3 29
-22 30 -24 11 -17 -13 5 -17 3 -15 -5 6 -16 30 -17 41 -3 5 5 5 -1 1 -15 -3
-14 -3 -22 1 -18 4 4 16 -3 27 -15 16 -18 19 -19 14 -4 -3 11 -2 16 4 12 6 -4
10 -12 9 -18 -3 -26 2 -38 13 -31 6 4 8 3 4 -4 -3 -6 4 -18 16 -27 21 -14 24
-14 36 2 13 17 13 17 10 -1 -2 -10 3 -21 11 -24 8 -3 11 0 7 7 -5 7 -1 9 8 5
14 -5 14 -8 1 -21 -24 -24 -17 -38 8 -15 16 15 27 18 37 12 8 -5 11 -10 6 -10
-5 0 -3 -7 4 -15 10 -12 9 -20 -4 -39 -15 -24 -61 -33 -52 -11 2 5 9 9 16 7
14 -3 40 16 40 31 0 5 -8 3 -17 -5 -10 -9 -24 -13 -30 -11 -7 3 -13 0 -13 -7
0 -6 -5 -8 -11 -4 -8 4 -3 11 12 20 24 13 24 13 2 11 -13 -1 -23 -5 -23 -10 0
-4 -5 -5 -10 -2 -6 4 -7 12 -3 18 11 18 12 36 2 43 -5 3 -9 -6 -9 -20 0 -14
-5 -26 -11 -26 -6 0 -9 6 -6 14 6 14 2 14 -38 6 -22 -5 -36 1 -29 12 4 7 3 8
-4 4 -18 -11 -2 -35 20 -31 11 3 23 6 25 9 6 6 83 -71 83 -84 0 -7 8 -9 21 -5
16 5 19 4 14 -5 -5 -9 -4 -11 3 -6 7 4 22 0 34 -8 12 -9 19 -16 14 -16 -5 0
-3 -7 5 -16 12 -14 14 -14 25 1 8 10 14 12 19 5 3 -5 11 -8 16 -4 13 8 40 -16
32 -29 -3 -5 -1 -7 4 -4 6 4 13 0 17 -8 3 -8 -3 -19 -12 -24 -9 -6 -12 -11 -7
-11 6 0 16 5 23 12 9 9 12 9 12 0 0 -7 5 -12 12 -12 9 0 9 3 0 12 -17 17 -15
33 2 18 17 -14 41 -2 41 20 0 15 -26 42 -34 34 -2 -2 2 -11 10 -21 9 -11 10
-14 2 -9 -8 4 -13 2 -13 -6 0 -10 -3 -9 -9 1 -6 9 -6 22 0 32 13 24 12 28 -8
25 -9 -2 -19 -8 -21 -15 -3 -9 -7 -9 -18 0 -11 9 -18 9 -29 -1 -10 -9 -15 -9
-15 -1 0 6 5 11 12 11 6 0 9 3 6 6 -4 3 -15 1 -25 -4 -11 -6 -25 -7 -32 -3
-16 10 -3 19 22 16 11 -2 17 3 17 15 0 10 4 22 10 25 6 4 9 -3 7 -16 -1 -12 3
-24 10 -26 6 -2 10 4 9 14 -2 10 -1 12 1 6 4 -13 8 -14 41 -17 9 0 27 -11 40
-24 16 -16 29 -21 44 -16 14 4 18 2 14 -5 -4 -6 -14 -11 -22 -11 -8 0 -14 -5
-14 -11 0 -5 5 -7 12 -3 6 4 8 3 4 -4 -3 -6 -2 -13 4 -17 5 -3 10 -1 10 4 0
14 37 14 46 0 4 -8 -1 -9 -17 -4 -23 7 -23 6 -7 -11 16 -17 18 -17 36 -1 18
17 20 17 33 0 12 -16 12 -17 -2 -6 -12 10 -18 10 -27 1 -17 -17 -15 -33 2 -19
10 9 16 9 21 1 4 -6 12 -9 19 -7 7 3 23 -1 37 -9 13 -7 20 -13 14 -13 -5 -1
-17 3 -25 9 -9 5 -19 5 -27 -2 -10 -8 -13 -7 -13 3 0 11 -2 11 -10 -1 -5 -8
-10 -10 -10 -4 0 6 -7 11 -15 11 -8 0 -12 -3 -10 -7 2 -4 -2 -7 -10 -7 -12 0
-12 3 -2 16 10 12 9 13 -2 6 -9 -5 -12 -4 -7 3 3 6 2 13 -4 17 -5 3 -10 -2
-10 -11 0 -19 -15 -10 -15 9 -1 7 -7 11 -14 9 -7 -1 -10 2 -5 9 4 8 3 9 -5 5
-6 -4 -8 -12 -5 -18 5 -8 1 -9 -11 -4 -14 5 -16 4 -7 -7 7 -8 8 -17 4 -22 -4
-4 2 -3 14 3 18 9 25 7 43 -15 17 -18 26 -22 34 -14 18 18 31 13 16 -7 -7 -9
-9 -14 -5 -10 5 5 20 -9 32 -30 13 -20 24 -32 24 -26 0 5 -5 15 -12 22 -6 6
-9 15 -5 18 3 4 13 0 21 -9 8 -8 13 -17 10 -20 -8 -8 19 -3 34 7 9 6 12 1 8
-18 -3 -18 2 -29 20 -41 14 -9 22 -20 19 -25 -3 -5 -1 -11 4 -15 6 -3 8 5 5
20 -2 14 0 25 6 25 10 0 14 -13 11 -37 -2 -14 39 -28 48 -17 9 13 31 16 31 4
0 -6 -4 -10 -10 -10 -5 0 -10 -4 -10 -10 0 -5 3 -9 8 -8 12 4 53 -22 48 -31
-3 -4 1 -8 9 -8 12 0 12 3 3 15 -10 11 -8 13 8 10 19 -3 34 -16 34 -31 0 -5
-4 -6 -9 -2 -5 3 -12 1 -15 -4 -11 -18 24 -5 39 15 8 11 15 14 15 7 0 -7 -9
-22 -20 -33 -11 -11 -16 -20 -11 -20 6 0 13 5 16 10 4 6 11 8 16 4 5 -3 6 -10
3 -16 -4 -7 -2 -8 5 -4 9 6 9 11 1 21 -14 17 -1 40 23 40 9 0 17 5 17 10 0 12
-41 15 -56 3 -13 -9 -29 17 -25 42 2 10 -2 9 -14 -5 -9 -11 -13 -14 -9 -6 5
10 3 12 -6 6 -8 -5 -11 -4 -6 3 3 6 2 13 -4 17 -15 9 -12 22 6 29 13 5 14 4 6
-7 -12 -14 -7 -27 10 -27 5 0 6 4 3 10 -3 5 -2 10 4 10 5 0 12 -8 15 -18 3 -9
15 -23 27 -31 19 -11 21 -11 16 1 -3 8 -1 21 4 29 7 11 9 11 9 1 0 -7 5 -10
12 -6 6 4 8 3 5 -2 -3 -6 -2 -16 4 -24 7 -13 9 -12 9 2 0 9 4 19 8 22 5 3 8
-4 8 -16 -1 -12 6 -23 14 -26 13 -5 13 -3 1 11 -7 10 -9 17 -3 17 6 0 13 -6
15 -12 4 -9 8 -10 14 -2 8 11 40 11 51 -1 4 -4 0 -6 -8 -4 -22 4 -61 -11 -55
-22 4 -5 14 -5 26 2 12 6 23 8 27 5 3 -3 0 -6 -6 -6 -7 0 -12 -4 -12 -10 0
-16 24 -7 37 15 11 19 12 18 19 -9 l7 -29 19 22 c10 13 18 18 18 13 0 -6 -5
-14 -10 -17 -6 -4 -8 -11 -4 -16 3 -5 14 1 25 13 12 13 18 18 15 12 -3 -7 1
-15 10 -18 22 -8 26 -8 19 3 -13 22 16 20 50 -4 21 -13 42 -22 47 -19 6 4 14
1 18 -6 5 -9 13 -6 29 11 11 12 21 19 21 13 0 -5 5 -2 11 6 9 13 10 13 6 0 -2
-8 -10 -14 -16 -13 -6 2 -11 -1 -11 -6 0 -15 21 -25 29 -14 8 13 41 13 41 0 0
-5 -8 -6 -17 -3 -15 5 -15 4 1 -9 11 -8 15 -15 9 -15 -7 0 -15 5 -18 10 -4 6
-11 8 -16 4 -5 -3 -22 -7 -37 -10 -21 -3 -24 -2 -12 6 12 8 9 9 -13 6 -15 -3
-25 -1 -23 3 3 4 -1 8 -9 8 -8 0 -11 -5 -8 -10 4 -6 1 -7 -7 -2 -9 6 -11 4 -4
-6 6 -10 0 -9 -18 3 -19 13 -29 15 -34 6 -4 -6 -3 -8 4 -4 6 3 13 2 17 -4 3
-5 0 -10 -7 -10 -7 0 -2 -9 12 -20 25 -19 25 -19 42 3 20 25 23 17 7 -16 -10
-21 -10 -21 5 -3 9 11 16 23 16 28 0 4 7 5 16 1 13 -5 13 -7 2 -14 -7 -5 -9
-9 -4 -9 6 0 1 -7 -10 -15 -10 -8 -14 -15 -7 -15 6 0 21 13 31 28 22 30 59 40
59 16 0 -9 -7 -12 -18 -9 -21 7 -46 -29 -29 -40 6 -4 10 -3 9 2 -3 19 2 33 12
33 6 0 8 -7 5 -17 -6 -16 -6 -16 12 0 10 9 22 14 25 10 4 -3 7 -1 7 5 0 7 -6
12 -12 12 -7 1 -2 7 12 15 14 8 21 14 16 15 -6 0 -5 5 2 12 9 9 7 15 -6 26 -9
7 0 4 21 -7 38 -21 38 -21 32 -1 -4 11 -2 20 4 20 6 0 10 -3 10 -7 -4 -22 3
-30 26 -31 14 0 28 5 31 10 3 5 11 4 19 -2 10 -8 16 -7 25 7 9 15 10 14 4 -7
-6 -22 -5 -23 9 -12 13 11 17 10 27 -8 11 -21 6 -40 -12 -40 -7 0 -6 6 2 15 7
8 9 15 4 16 -5 0 -17 2 -27 4 -10 2 -15 -1 -11 -8 3 -7 -1 -4 -9 6 -10 12 -17
14 -22 8 -3 -6 -20 -9 -36 -6 -28 5 -29 4 -19 -16 10 -17 9 -20 -2 -16 -7 2
-12 9 -11 14 1 5 -5 10 -13 10 -8 0 -14 -5 -14 -10 0 -5 -7 -4 -15 3 -14 12
-19 7 -16 -14 1 -4 -4 -15 -11 -24 -11 -13 -11 -14 1 -7 10 6 13 4 9 -6 -4
-10 1 -15 12 -15 10 0 16 5 12 11 -25 40 16 61 43 22 14 -20 15 -21 15 -2 1
18 2 19 13 3 12 -15 14 -15 26 4 19 31 25 14 6 -19 -10 -15 -11 -21 -4 -12 8
9 20 14 28 11 9 -3 11 1 6 17 -5 16 -3 20 9 15 9 -3 14 -10 11 -14 -3 -4 3
-14 13 -21 9 -7 14 -10 10 -5 -10 12 11 48 23 40 6 -3 19 2 29 11 18 16 20 16
26 1 7 -19 18 -20 36 -4 7 7 19 14 26 15 21 5 13 -12 -15 -29 -16 -10 -23 -18
-17 -18 6 0 23 11 37 24 14 13 28 21 31 18 3 -3 6 0 6 7 0 7 5 9 11 5 11 -7
-30 -55 -42 -48 -3 2 -6 -3 -6 -11 0 -10 4 -12 12 -5 7 5 15 8 18 5 4 -3 5 -2
3 1 -2 3 3 14 12 25 9 11 18 24 18 29 3 24 6 23 19 -5 9 -19 14 -24 15 -12 0
9 5 17 11 17 5 0 7 -5 3 -12 -4 -7 -3 -8 5 -4 6 4 9 12 6 17 -10 15 7 10 27
-8 18 -16 18 -16 12 0 -3 9 -10 17 -15 17 -6 0 -4 6 3 14 15 16 29 11 22 -8
-3 -8 -1 -17 5 -21 7 -4 8 0 4 11 -4 12 -3 15 5 10 7 -4 15 0 19 10 6 15 7 14
15 -5 9 -24 35 -24 30 1 -2 16 24 18 47 4 7 -5 16 -5 20 0 9 14 63 15 55 2 -4
-7 -3 -8 4 -4 6 4 9 13 5 21 -3 8 0 15 7 15 6 0 8 5 5 10 -7 11 23 9 42 -3 6
-4 19 -4 28 -1 13 5 14 9 4 15 -21 12 9 40 37 35 21 -4 23 -2 14 14 -6 10 -6
21 -1 24 10 7 29 -35 24 -52 -3 -6 -10 -9 -15 -6 -7 4 -8 2 -4 -4 12 -21 35
-2 30 25 -4 23 -3 25 11 13 10 -8 15 -9 15 -1 0 6 -4 11 -10 11 -5 0 -10 7
-10 17 0 14 3 14 22 -3 12 -10 18 -13 14 -6 -4 6 -2 12 3 12 6 0 11 5 11 11 0
5 -4 8 -9 4 -5 -3 -12 -1 -15 4 -3 5 1 11 9 15 18 7 38 -27 24 -41 -6 -6 -5
-10 5 -10 8 0 13 4 10 9 -3 4 0 8 6 8 7 0 4 7 -5 16 -9 9 -13 19 -9 23 4 3 9
0 11 -6 3 -7 9 -13 15 -13 7 0 6 5 -1 14 -10 12 -8 17 8 25 13 7 22 8 26 1 3
-5 -2 -10 -11 -10 -10 0 -15 -3 -11 -6 3 -4 14 -4 23 0 12 5 14 9 5 20 -8 10
-8 16 3 25 10 8 16 9 21 1 3 -5 1 -10 -5 -10 -6 0 -8 -4 -5 -10 3 -5 11 -10
16 -10 6 0 7 5 4 10 -6 9 8 14 28 11 5 -1 6 3 2 9 -3 5 -2 10 3 10 15 0 34 51
23 64 -7 8 -4 21 9 41 11 17 20 26 20 22 0 -4 -7 -19 -16 -32 -16 -24 -15 -25
7 -25 18 0 20 -3 10 -9 -17 -11 -8 -27 18 -34 13 -3 18 -1 14 9 -2 7 -12 10
-21 6 -15 -5 -15 -4 -3 12 14 17 16 16 34 -6 17 -22 18 -22 8 -1 -15 30 -14
38 4 23 9 -8 15 -8 15 -2 0 6 -6 12 -12 15 -7 2 -10 7 -7 11 4 4 14 0 23 -9 9
-9 16 -12 16 -5 0 6 5 8 10 5 6 -3 13 0 16 9 3 8 14 13 24 11 13 -3 17 1 13
12 -4 11 -8 11 -13 3 -5 -9 -9 -9 -14 -1 -4 6 0 14 9 17 13 6 14 8 3 15 -10 7
-8 9 6 9 12 0 16 5 12 15 -9 25 2 17 19 -12 14 -25 15 -26 9 -4 -6 23 -6 23
17 7 13 -9 28 -16 34 -16 5 1 -3 8 -19 17 -28 15 -29 16 -11 29 10 8 15 14 10
14 -5 0 0 7 11 16 18 15 18 15 -3 5 -12 -6 -24 -16 -26 -23 -4 -10 -6 -10 -6
0 -1 6 -6 12 -12 12 -8 0 -8 -4 0 -14 10 -11 9 -14 -1 -12 -7 1 -19 6 -27 10
-9 6 -12 5 -7 -2 3 -5 0 -13 -6 -15 -9 -4 -9 -6 1 -6 11 -1 10 -5 -5 -15 -12
-9 -23 -11 -30 -5 -7 6 -16 4 -24 -6 -9 -10 -9 -15 -1 -15 6 0 11 -5 11 -12 0
-9 -3 -9 -12 0 -17 17 -31 15 -24 -4 3 -9 2 -12 -5 -9 -6 4 -8 13 -5 20 3 8 0
15 -6 17 -17 6 0 28 20 27 15 -1 15 -2 -1 -6 -9 -2 -15 -9 -12 -14 4 -5 14 -5
26 2 16 8 18 13 8 25 -7 8 -7 14 -1 14 5 0 13 -7 16 -16 5 -14 9 -14 22 -3 8
7 13 21 11 31 -4 14 -2 16 13 8 17 -9 30 -4 30 12 0 5 -5 6 -12 2 -7 -4 -8 -3
-4 4 8 13 36 5 36 -10 0 -5 5 -6 10 -3 6 4 8 10 6 14 -3 4 2 18 10 30 11 15
22 20 37 16 21 -6 22 -6 3 9 -17 14 -18 16 -3 16 9 0 17 -5 17 -11 0 -5 4 -8
9 -5 5 3 12 -1 15 -10 3 -8 2 -13 -3 -9 -5 3 -17 2 -26 -1 -13 -5 -11 -9 11
-20 34 -18 36 -18 62 6 13 13 20 29 18 43 -2 12 2 28 8 36 9 12 8 13 -7 8 -10
-4 -21 -7 -24 -7 -3 0 1 -8 8 -17 12 -14 12 -16 0 -8 -10 5 -12 4 -7 -4 4 -6
4 -11 -1 -10 -20 3 -25 -2 -13 -16 6 -8 9 -19 5 -25 -8 -13 -32 -13 -40 0 -3
5 0 7 8 4 10 -3 14 4 14 25 0 17 -3 28 -7 26 -3 -2 -12 1 -20 6 -11 6 -5 8 18
4 17 -3 32 -2 31 2 -4 22 2 33 13 27 8 -5 9 -2 5 10 -4 10 -3 15 3 11 6 -3 10
-1 10 6 0 8 5 6 13 -5 12 -16 14 -15 34 8 12 13 19 27 16 30 -4 3 -1 6 5 6 16
0 15 -15 -2 -29 -8 -7 -13 -20 -11 -30 2 -13 -3 -18 -18 -17 -13 1 -21 -4 -19
-12 1 -8 -2 -11 -9 -7 -7 5 -7 -1 2 -16 7 -15 14 -19 17 -11 2 6 9 9 15 5 8
-5 8 -2 0 9 -7 8 -10 18 -6 21 3 4 11 -1 18 -9 9 -13 12 -13 13 -3 3 44 11 71
26 95 17 26 17 26 -5 19 -22 -7 -22 -7 -5 10 15 15 19 16 26 4 5 -8 5 -19 -1
-26 -6 -7 -7 -18 -3 -24 4 -7 3 -9 -2 -6 -6 3 -11 -3 -11 -14 -2 -23 6 -24 32
-5 11 8 26 11 35 8 12 -4 13 -2 3 9 -10 10 -16 10 -25 1 -7 -7 -17 -12 -23
-12 -5 1 1 10 14 21 23 19 25 19 45 2 19 -17 20 -17 7 0 -15 20 -2 23 19 5 12
-11 12 -10 0 5 -7 10 -19 16 -26 13 -7 -3 -16 -1 -19 4 -6 10 7 14 33 11 6 -1
12 3 12 8 0 5 -10 7 -22 5 -13 -3 -29 -6 -35 -6 -9 -1 -10 -5 -2 -15 7 -8 8
-13 1 -13 -15 0 -24 32 -11 41 7 4 19 4 28 1 14 -5 14 -3 2 11 -7 9 -10 17 -5
17 5 0 2 5 -6 10 -9 6 -10 10 -3 10 6 0 14 -4 18 -10 3 -5 12 -7 19 -4 8 3 17
1 21 -5 3 -7 -3 -11 -15 -11 -12 0 -18 -4 -15 -11 5 -7 15 -5 31 6 22 14 34 8
17 -9 -4 -3 -8 -16 -10 -28 -2 -12 -1 -19 3 -16 3 3 7 12 8 20 1 7 8 23 15 36
10 19 15 21 27 11 8 -6 17 -9 21 -5 3 3 1 6 -6 6 -9 0 -9 5 0 22 9 17 9 23 0
26 -6 2 -9 8 -6 12 3 5 12 7 20 3 8 -3 15 0 15 7 0 6 5 8 11 5 7 -5 4 -14 -8
-28 l-18 -22 23 19 c21 18 21 20 5 39 -17 20 -17 20 0 14 11 -4 16 -3 12 3 -3
6 -1 10 5 10 6 0 8 5 3 13 -8 12 -11 26 -17 65 -3 18 -1 20 10 11 16 -13 19 2
3 18 -7 7 -6 12 5 16 10 4 13 1 10 -8 -4 -10 2 -13 27 -10 31 4 32 4 16 -13
-15 -15 -19 -15 -27 -2 -7 12 -9 10 -7 -7 0 -12 5 -19 9 -17 4 3 5 -2 1 -11
-4 -13 -8 -14 -14 -4 -4 7 -5 17 -3 21 3 4 -3 5 -12 1 -11 -4 -13 -8 -6 -11 7
-2 10 -8 6 -13 -3 -5 0 -9 6 -9 6 0 9 -4 6 -8 -2 -4 0 -14 6 -22 8 -12 9 -12
4 2 -7 23 9 31 35 18 16 -9 24 -9 33 1 8 9 8 10 -1 5 -18 -10 -39 3 -40 24 -1
14 2 18 10 13 22 -14 36 -11 30 5 -4 10 -2 13 5 8 7 -4 12 -2 12 3 0 17 -18
13 -28 -5 -5 -10 -12 -12 -15 -7 -4 6 2 18 12 27 15 13 24 15 38 8 15 -9 19
-7 19 8 0 14 -3 16 -13 8 -10 -8 -12 -5 -9 13 2 13 9 23 16 21 6 -1 9 2 5 8
-3 5 -1 10 4 10 11 0 14 -9 14 -42 0 -10 3 -15 8 -13 4 3 6 15 4 27 -3 12 1
29 8 37 10 13 10 14 -3 6 -18 -12 -40 -13 -59 -1 -9 6 -12 5 -7 -2 4 -7 0 -10
-12 -7 -11 2 -19 -3 -19 -10 0 -8 4 -12 8 -10 3 3 12 -2 19 -10 9 -11 8 -14
-7 -12 -11 0 -28 12 -38 26 -10 13 -14 22 -9 19 5 -3 15 0 22 8 7 8 10 14 6
14 -3 0 -1 6 5 13 6 8 9 16 6 19 -3 2 2 5 10 5 8 0 15 -4 15 -8 0 -4 9 -6 21
-4 16 3 19 0 14 -15 -4 -13 -2 -20 6 -20 7 0 9 3 6 6 -10 10 33 65 45 58 7 -4
8 -2 4 4 -4 6 -14 8 -23 5 -11 -4 -14 -3 -9 5 5 8 2 10 -9 6 -11 -5 -14 -2 -9
12 4 11 3 16 -2 11 -5 -5 -9 -18 -9 -30 0 -12 -4 -23 -10 -24 -5 -1 -9 8 -9
20 1 12 -3 26 -10 30 -7 6 -4 7 8 3 13 -5 17 -2 13 8 -4 11 -1 13 11 9 15 -6
15 -5 3 10 -8 10 -11 20 -7 24 3 3 6 1 6 -6 0 -7 4 -10 10 -6 5 3 7 13 4 23
-5 13 -4 14 4 4 7 -11 10 -11 15 2 4 9 2 16 -3 16 -6 0 -10 7 -10 15 0 12 4
11 20 -5 11 -11 25 -20 31 -20 8 0 8 -5 -1 -15 -9 -10 -9 -15 -1 -15 12 0 14
10 13 48 -1 12 4 22 11 22 7 0 21 8 32 17 l20 16 -20 -8 c-45 -16 -49 -16 -27
4 13 11 30 18 40 14 14 -5 13 -3 -2 9 -13 10 -15 17 -8 22 7 4 12 2 12 -3 0
-6 5 -11 11 -11 6 0 4 9 -5 21 -16 23 -12 41 16 78 14 18 15 27 7 38 -7 7 -9
16 -5 20 3 4 13 -2 22 -13 14 -18 15 -18 4 4 -12 24 -2 29 20 10 12 -11 12
-10 0 5 -7 10 -19 16 -26 13 -7 -3 -16 -1 -19 4 -6 9 7 14 30 11 6 -1 -3 10
-19 23 -17 14 -35 22 -40 19 -6 -4 -3 3 7 14 22 25 22 40 0 22 -15 -12 -16
-12 -8 1 11 16 12 21 14 48 0 10 8 19 16 19 11 0 12 -3 3 -14 -9 -11 -9 -16 1
-23 11 -6 11 -9 0 -14 -8 -3 -4 -3 8 0 18 4 22 2 17 -10 -3 -8 -10 -14 -16
-13 -6 1 -12 -6 -13 -16 -2 -9 1 -15 5 -12 5 3 20 -9 35 -27 15 -18 24 -26 19
-18 -4 8 -14 23 -22 33 -14 15 -13 17 4 18 18 0 18 1 0 8 -17 7 -17 8 -2 23
15 15 15 17 -4 23 -11 4 -18 11 -14 16 3 6 12 5 22 -3 10 -7 7 -1 -5 13 -13
14 -23 30 -23 37 0 6 -5 14 -12 18 -8 5 -9 1 -4 -12 6 -15 5 -17 -5 -6 -10 9
-10 15 -2 23 6 6 10 17 9 23 -2 6 -1 8 1 3 3 -4 10 -4 15 -1 6 4 9 3 7 -2 -3
-5 9 -22 25 -39 28 -28 29 -28 14 -4 -11 17 -13 30 -7 36 6 6 4 14 -6 23 -8 7
-15 17 -15 22 0 6 7 4 17 -3 9 -8 25 -13 36 -11 13 3 17 0 12 -9 -5 -8 -4 -10
4 -5 17 11 2 28 -21 23 -11 -3 -21 0 -24 8 -7 19 -32 27 -40 13 -5 -7 -2 -8 7
-3 11 7 12 6 2 -6 -10 -12 -8 -17 8 -27 11 -7 17 -17 13 -23 -8 -14 -38 30
-40 58 0 13 3 23 8 23 4 0 8 5 8 11 0 5 -4 8 -8 5 -5 -3 -9 1 -9 9 0 10 8 13
24 11 24 -5 40 8 23 19 -5 3 -10 11 -10 17 0 7 5 6 14 -1 10 -8 16 -9 21 -1 4
6 1 9 -5 8 -7 -2 -14 5 -15 16 -2 10 -8 23 -14 29 -14 14 -14 30 -1 22 16 -10
12 5 -7 23 -16 16 -16 16 -10 0 3 -10 2 -18 -3 -18 -6 0 -10 11 -10 25 0 29
15 33 28 8 8 -13 10 -11 10 10 0 15 -4 27 -9 27 -5 0 -9 5 -9 11 0 5 5 7 12 3
6 -4 8 -3 4 4 -3 6 -2 14 4 17 8 5 8 11 1 19 -6 7 -7 16 -3 21 4 4 -2 2 -14
-5 -11 -7 -21 -19 -21 -28 0 -12 3 -12 13 2 7 10 15 13 18 8 3 -5 -1 -15 -10
-22 -8 -7 -13 -19 -10 -27 3 -7 1 -13 -4 -13 -10 0 -14 24 -11 73 0 15 -4 27
-11 27 -6 0 -8 3 -5 6 4 4 12 3 20 -2 7 -5 4 -1 -6 9 -16 14 -16 17 -4 17 9 0
19 4 22 10 4 6 -4 9 -17 7 -17 -1 -23 3 -22 16 1 9 -2 17 -7 17 -5 0 -8 3 -8
8 4 25 -2 42 -13 36 -7 -4 -10 -4 -6 1 4 4 3 14 -3 22 -6 7 -8 13 -3 13 5 0 3
4 -4 9 -10 6 -10 10 3 21 14 12 15 10 11 -14 -4 -23 -3 -26 9 -16 10 9 12 17
5 30 -5 9 -6 21 -2 26 4 5 -1 3 -10 -5 -15 -11 -17 -10 -15 8 1 15 6 20 17 16
11 -5 12 -3 3 6 -16 16 -32 3 -28 -26 3 -34 -6 -31 -32 8 -13 18 -33 44 -45
57 -13 14 -23 28 -23 32 0 4 -9 13 -19 21 -21 15 -30 47 -14 47 6 0 8 -7 4
-15 -6 -18 29 -41 39 -25 3 5 -1 10 -9 10 -9 0 -16 4 -16 10 0 5 8 7 18 3 11
-4 7 4 -11 21 -23 23 -29 46 -11 46 3 0 3 -4 0 -9 -3 -5 1 -14 8 -20 9 -8 17
-8 20 -2 3 5 0 12 -6 14 -9 4 -8 6 2 7 10 0 6 6 -10 16 l-25 15 25 -7 c22 -6
23 -5 11 10 -9 10 -10 16 -2 16 6 0 11 -5 11 -12 0 -13 14 -2 16 13 1 5 2 13
3 18 2 16 29 20 35 5 4 -10 0 -14 -11 -12 -9 2 -17 -5 -19 -15 -2 -15 0 -16
13 -5 14 11 15 11 11 -2 -3 -8 -12 -14 -21 -14 -10 1 -14 -5 -12 -18 3 -12 0
-16 -8 -11 -7 4 -5 -2 3 -12 8 -10 10 -16 4 -12 -7 4 -10 -7 -9 -31 1 -29 5
-36 18 -34 9 2 17 -2 17 -8 0 -5 -5 -9 -11 -7 -6 1 -14 -4 -16 -11 -4 -11 -1
-12 15 -3 29 15 37 14 22 -4 -7 -8 -16 -12 -21 -9 -5 3 -9 0 -9 -5 0 -6 7 -11
16 -11 8 0 12 -4 9 -10 -3 -5 -1 -10 5 -10 6 0 9 -4 5 -9 -3 -5 0 -13 7 -17 7
-4 10 -4 6 1 -4 4 -3 14 3 21 12 15 3 37 -12 29 -15 -10 -10 7 8 27 10 11 13
18 8 16 -13 -4 -49 23 -52 40 -4 19 11 14 27 -8 14 -20 30 -27 30 -12 0 4 -13
16 -28 26 -16 10 -29 25 -29 32 0 20 7 17 35 -13 13 -16 21 -22 17 -15 -4 7
-1 21 7 30 11 15 11 15 -2 5 -12 -9 -20 -7 -39 8 -14 12 -18 19 -9 19 8 0 18
-3 24 -8 5 -4 6 -3 2 3 -11 13 -10 27 2 20 6 -3 7 1 4 10 -4 9 2 25 11 35 10
11 13 20 7 20 -14 0 -9 33 6 38 7 2 10 -3 6 -12 -4 -10 0 -18 10 -22 9 -3 13
-11 9 -17 -4 -6 -1 -7 7 -2 10 6 10 11 -3 20 -17 12 -23 27 -9 23 4 -2 8 0 10
5 6 19 0 25 -22 23 -13 0 -22 -5 -19 -11 3 -5 0 -4 -8 3 -18 17 -25 15 -26 -9
-1 -16 1 -18 11 -10 9 8 13 7 13 -4 0 -8 -3 -13 -5 -10 -3 3 -12 0 -19 -7 -11
-9 -17 -9 -24 3 -5 8 -9 19 -9 24 0 6 5 3 10 -5 10 -16 13 -10 13 32 0 9 5 16
11 15 6 -1 10 7 9 18 -1 11 0 14 3 7 3 -6 10 -9 15 -6 6 3 6 11 -2 20 -9 11
-8 15 5 20 10 4 15 13 12 21 -3 8 -1 11 5 8 5 -4 7 -16 4 -26 -6 -18 -5 -19
14 -7 19 12 19 13 3 31 -16 18 -16 20 0 31 10 7 14 17 10 22 -4 4 0 3 10 -4
11 -9 18 -10 23 -2 3 5 1 10 -5 10 -6 0 0 12 14 27 14 15 23 30 20 33 -3 3
-14 -6 -25 -19 -10 -13 -19 -18 -19 -12 0 6 14 20 30 33 17 12 30 28 30 35 0
7 4 13 8 13 5 0 17 7 28 16 13 11 14 14 3 11 -9 -3 -16 0 -16 7 0 16 77 18 96
3 12 -9 13 -9 7 1 -4 7 -2 12 5 12 7 0 9 3 6 7 -4 3 5 14 19 24 26 16 26 17 5
24 -11 3 -21 11 -21 17 0 6 -6 6 -15 -2 -8 -7 -15 -17 -15 -23 0 -8 3 -8 11 0
13 13 42 6 34 -8 -3 -4 -13 -5 -22 -2 -9 4 -14 2 -10 -3 3 -6 2 -16 -4 -24 -5
-9 -9 -10 -9 -3 0 7 -10 10 -24 7 -14 -2 -27 0 -31 6 -3 6 1 7 9 4 9 -3 16 -2
16 4 0 6 -5 12 -12 14 -7 3 -5 7 6 11 10 4 15 3 11 -3 -3 -6 -2 -10 2 -10 5 0
14 10 22 21 12 20 11 21 -6 15 -12 -5 -10 0 8 16 15 13 28 28 29 33 6 21 44
64 52 59 4 -3 8 1 8 9 0 10 8 13 25 9 15 -2 22 -9 18 -16 -3 -6 -2 -7 2 -3 18
16 14 38 -5 32 -10 -3 -21 -1 -25 5 -3 6 3 10 17 10 19 0 20 2 8 11 -11 7 -12
12 -3 15 7 3 9 12 6 20 -3 8 0 21 6 28 9 11 9 15 0 18 -6 2 -11 16 -11 31 0
14 -3 26 -7 25 -20 -2 -42 3 -38 10 3 4 -15 7 -39 7 -24 0 -44 -3 -44 -7z
m-3360 -578 c0 -5 -5 -10 -11 -10 -5 0 -7 5 -4 10 3 6 8 10 11 10 2 0 4 -4 4
-10z m-156 -50 c-6 -6 -24 -13 -40 -16 -21 -3 -25 -2 -14 5 8 5 17 8 21 5 4
-2 10 0 14 6 3 5 11 10 18 10 7 0 8 -3 1 -10z m2913 -6 c0 -7 -5 -10 -10 -7
-5 3 -7 0 -5 -8 3 -8 -9 -24 -28 -37 -21 -14 -31 -28 -28 -37 4 -8 1 -15 -6
-15 -6 0 -9 4 -5 9 3 5 1 12 -5 16 -5 3 -10 0 -10 -7 0 -10 -3 -9 -9 2 -6 8
-7 18 -5 22 3 4 -1 8 -9 8 -8 0 -22 10 -33 23 -10 12 -12 17 -5 10 9 -8 21 -9
38 -2 14 5 22 5 19 0 -7 -11 20 -22 38 -15 7 3 18 15 24 28 11 24 39 31 39 10z
m-3097 -53 c0 -5 -7 -12 -16 -15 -14 -5 -15 -4 -4 9 14 17 20 19 20 6z m3397
-96 c-4 -8 -12 -15 -19 -14 -10 0 -10 2 0 6 6 2 12 12 12 21 0 8 3 13 6 9 4
-3 4 -13 1 -22z m61 0 c-3 -3 -9 2 -12 12 -6 14 -5 15 5 6 7 -7 10 -15 7 -18z
m-4088 -635 c0 -5 -2 -10 -4 -10 -3 0 -8 5 -11 10 -3 6 -1 10 4 10 6 0 11 -4
11 -10z m4209 -86 c-9 -11 -8 -18 1 -29 10 -12 8 -13 -10 -10 -24 5 -40 15
-23 15 9 0 10 22 3 55 -6 26 2 28 20 6 16 -18 18 -27 9 -37z m-4229 -114 c0
-5 -2 -10 -4 -10 -3 0 -8 5 -11 10 -3 6 -1 10 4 10 6 0 11 -4 11 -10z m4178
-260 c-1 -17 -5 -33 -10 -36 -5 -3 -1 -12 8 -19 16 -11 16 -14 -7 -37 -14 -14
-24 -36 -24 -53 0 -21 -4 -29 -15 -27 -12 3 -12 1 -3 -9 9 -9 7 -16 -12 -31
-15 -12 -22 -27 -21 -43 3 -21 1 -23 -15 -14 -24 12 -25 33 -1 25 14 -5 14 -4
-2 9 -11 8 -15 15 -8 15 6 0 9 9 7 20 -3 13 0 18 7 14 7 -5 9 -2 5 9 -4 12 -1
15 14 12 13 -3 19 0 16 8 -3 7 -10 11 -17 9 -11 -3 -11 0 -1 12 7 8 9 21 5 27
-4 7 -3 9 4 5 6 -4 11 1 11 11 1 45 4 54 15 43 19 -19 29 -10 11 10 -17 18
-16 22 1 19 17 -2 22 27 7 39 -15 11 -15 12 4 12 18 0 21 -6 21 -30z m-4064
-226 c3 -8 2 -12 -4 -9 -6 3 -10 10 -10 16 0 14 7 11 14 -7z m6 -34 c0 -5 -2
-10 -4 -10 -3 0 -8 5 -11 10 -3 6 -1 10 4 10 6 0 11 -4 11 -10z m66 -38 c-3
-3 2 -11 12 -19 14 -10 14 -12 1 -8 -11 4 -15 0 -14 -15 1 -12 6 -25 11 -28 6
-4 10 -20 10 -36 l0 -28 -22 28 c-13 15 -22 33 -21 38 1 6 -6 10 -15 10 -22
-2 -23 9 -3 26 13 11 13 14 -2 27 -10 8 -13 12 -6 9 6 -4 14 -2 18 3 3 6 12 8
21 4 8 -3 12 -8 10 -11z m34 -52 c0 -5 -5 -10 -11 -10 -5 0 -7 5 -4 10 3 6 8
10 11 10 2 0 4 -4 4 -10z m3760 -50 c0 -5 -5 -10 -11 -10 -5 0 -7 5 -4 10 3 6
8 10 11 10 2 0 4 -4 4 -10z m60 -9 c0 -6 -4 -12 -8 -15 -5 -3 -9 1 -9 9 0 8 4
15 9 15 4 0 8 -4 8 -9z m-50 -87 c0 -8 -19 -13 -24 -6 -3 5 1 9 9 9 8 0 15 -2
15 -3z m-37 -37 c4 3 7 1 7 -5 0 -19 -20 -24 -26 -7 -5 13 -9 14 -14 4 -6 -9
-12 -8 -26 6 -17 17 -17 17 6 10 23 -7 24 -7 10 11 -10 13 -7 12 11 -4 14 -12
29 -19 32 -15z m-3632 -45 c7 -20 6 -20 -16 -10 -26 12 -30 20 -18 32 11 11
25 2 34 -22z m3509 -42 c0 13 1 13 10 0 6 -9 6 -18 0 -24 -6 -6 -10 -15 -10
-20 0 -6 4 -4 10 4 5 8 12 11 17 7 8 -9 -17 -28 -28 -21 -4 2 -10 0 -14 -6 -3
-5 2 -10 11 -10 16 0 11 -15 -4 -15 -4 0 -13 -4 -19 -8 -14 -9 -33 -1 -33 14
0 5 7 9 15 9 18 0 19 12 4 27 -8 8 -5 13 9 18 14 4 19 12 16 23 -5 14 -4 15 5
2 9 -13 11 -13 11 0z m-70 -80 c0 -5 -5 -10 -11 -10 -5 0 -7 5 -4 10 3 6 8 10
11 10 2 0 4 -4 4 -10z m-3 -27 c16 10 53 -12 47 -28 -3 -8 -10 -13 -14 -10 -5
3 -11 1 -14 -4 -11 -18 -41 -5 -40 18 1 11 -3 21 -7 21 -5 0 -9 5 -9 11 0 8 4
8 15 -1 8 -6 18 -10 22 -7z m-43 -18 c3 -8 1 -15 -4 -15 -6 0 -10 7 -10 15 0
8 2 15 4 15 2 0 6 -7 10 -15z m-49 -45 c-3 -5 -12 -10 -18 -10 -7 0 -6 4 3 10
19 12 23 12 15 0z m-95 -80 c-6 -11 -12 -20 -14 -20 -2 0 -2 9 1 20 3 11 9 20
15 20 5 0 4 -9 -2 -20z m-2879 -29 c7 11 9 10 9 -4 0 -20 -22 -19 -26 1 -2 9
-1 9 3 1 4 -8 8 -7 14 2z m2829 -83 c0 -4 -4 -8 -9 -8 -6 0 -12 4 -15 8 -3 5
1 9 9 9 8 0 15 -4 15 -9z m-160 -28 c0 -5 -2 -10 -4 -10 -3 0 -8 5 -11 10 -3
6 -1 10 4 10 6 0 11 -4 11 -10z m-2483 -15 c4 -4 2 -5 -5 -1 -8 5 -13 3 -11
-5 1 -8 1 -21 0 -29 -1 -12 -4 -12 -12 3 -5 9 -7 22 -4 27 3 6 -1 10 -9 10
-18 0 -20 -8 -7 -30 15 -22 3 -30 -24 -18 -27 12 -25 31 2 21 11 -4 14 -3 9 5
-4 7 -4 17 -1 22 7 12 50 9 62 -5z m-27 -85 c0 -5 -2 -10 -4 -10 -3 0 -8 5
-11 10 -3 6 -1 10 4 10 6 0 11 -4 11 -10z m97 1 c9 8 13 8 13 0 0 -6 -6 -11
-12 -11 -9 0 -8 -3 2 -10 8 -5 12 -11 9 -14 -3 -3 -16 6 -30 22 -13 15 -17 21
-10 15 11 -9 18 -10 28 -2z m2261 -42 c14 -22 -10 -52 -33 -43 -12 5 -12 9 1
30 15 22 15 24 0 30 -9 3 -16 10 -16 15 0 13 35 -10 48 -32z m-66 -1 c-8 -8
-9 -4 -5 13 4 13 8 18 11 10 2 -7 -1 -18 -6 -23z m148 17 c-8 -10 -10 -16 -10
-34 0 -5 -8 -8 -17 -6 -10 2 -21 4 -24 4 -3 1 -6 8 -6 16 0 11 4 12 13 4 14
-11 29 4 19 20 -3 6 3 9 14 8 13 -1 17 -5 11 -12z m-2175 -13 c-3 -3 -11 0
-18 7 -9 10 -8 11 6 5 10 -3 15 -9 12 -12z m2015 -33 c0 -5 -4 -7 -10 -4 -5 3
-10 2 -10 -3 0 -6 7 -12 15 -16 21 -8 19 -21 -9 -53 -19 -22 -27 -25 -37 -16
-9 9 -20 5 -49 -18 -20 -16 -46 -31 -58 -34 -37 -7 -44 -15 -30 -33 11 -13 11
-14 -2 -7 -28 18 -41 14 -35 -8 5 -19 4 -20 -5 -5 -15 24 -42 12 -35 -16 4
-13 3 -17 -2 -8 -12 16 -57 -24 -49 -44 6 -16 -10 -19 -19 -4 -4 6 -12 7 -18
4 -7 -4 -8 -3 -4 2 5 5 14 9 20 9 5 0 12 7 14 15 3 9 1 11 -4 5 -4 -5 -15 -11
-23 -13 -8 -2 -25 -15 -37 -29 -18 -22 -53 -40 -53 -28 0 13 14 35 22 35 5 0
6 -5 2 -12 -4 -7 -3 -8 5 -4 6 4 9 11 6 16 -3 5 -1 11 5 15 5 3 10 12 10 18 0
7 -5 4 -11 -6 -7 -12 -17 -16 -29 -12 -15 5 -18 2 -15 -13 2 -11 -2 -19 -11
-19 -8 0 -14 3 -15 6 -5 36 -4 53 2 57 4 2 10 0 13 -5 4 -6 18 -6 35 -1 16 4
33 5 36 2 4 -4 4 4 1 18 -6 19 -5 21 3 10 10 -13 11 -13 11 0 1 12 3 11 11 -3
5 -9 7 -22 4 -27 -3 -5 0 -7 7 -5 8 3 14 15 15 25 1 11 -2 18 -8 15 -5 -4 -9
-2 -9 3 0 6 7 13 16 16 8 3 13 2 10 -3 -7 -10 19 -23 28 -14 3 4 1 12 -5 19
-7 8 -6 14 2 20 7 4 9 3 6 -3 -4 -6 1 -17 10 -24 15 -12 16 -12 10 3 -3 10 -1
20 5 24 6 4 8 3 4 -4 -3 -6 -2 -13 4 -17 5 -3 10 3 10 14 0 12 4 21 10 21 5 0
7 -7 4 -14 -5 -13 -2 -13 19 -3 18 8 22 14 14 20 -7 5 -3 6 10 2 18 -5 22 -3
17 9 -3 9 -11 13 -17 9 -6 -3 -7 -1 -3 6 4 6 11 9 15 7 4 -3 18 2 30 11 18 12
20 18 10 24 -8 4 2 6 24 5 39 -3 45 2 25 23 -11 11 -9 11 7 3 11 -6 28 -13 39
-16 16 -5 16 -9 5 -24 -7 -9 -1 -6 14 7 15 14 27 29 26 35 0 6 -3 5 -6 -2 -4
-10 -8 -10 -21 0 -13 11 -14 11 -7 -2 7 -12 6 -13 -7 -3 -8 7 -17 11 -20 8 -3
-3 -11 1 -18 10 -8 10 -9 15 -1 15 6 0 11 -4 11 -9 0 -15 32 -6 42 12 10 19
28 23 28 6z m-1987 -82 c-3 -5 -9 -3 -14 4 -4 7 -5 17 -2 22 3 5 9 3 14 -4 4
-7 5 -17 2 -22z m37 22 c0 -6 9 -8 22 -4 16 6 20 4 15 -8 -9 -23 4 -29 20 -9
8 9 12 11 8 4 -4 -7 -1 -19 5 -28 10 -12 16 -12 29 -2 15 12 15 11 1 -6 -14
-18 -13 -19 3 -13 15 6 16 4 7 -13 -7 -12 -7 -21 0 -25 5 -3 10 0 10 8 0 8 7
18 16 21 8 3 13 2 10 -3 -3 -4 1 -17 9 -27 13 -18 14 -18 20 -1 4 9 12 17 18
17 5 0 2 -9 -8 -20 -22 -25 -9 -26 19 -2 14 12 17 12 9 1 -10 -12 -8 -22 8
-48 10 -17 23 -29 28 -26 5 3 12 1 15 -3 6 -10 -62 -8 -72 3 -4 3 -7 14 -7 23
0 19 -23 23 -42 9 -15 -11 -36 0 -27 14 10 16 -17 40 -37 34 -13 -4 -19 -1
-19 9 0 9 -6 16 -12 17 -10 0 -10 2 0 6 10 4 10 8 1 19 -8 10 -15 11 -24 4
-10 -8 -18 -4 -34 16 -20 25 -20 44 0 44 5 0 9 -5 9 -11z m300 -144 c0 -8 -2
-15 -4 -15 -2 0 -6 7 -10 15 -3 8 -1 15 4 15 6 0 10 -7 10 -15z m1153 -38 c6
4 8 0 4 -9 -6 -17 25 -53 36 -41 4 3 7 1 7 -5 0 -20 -19 -23 -29 -5 -6 11 -11
13 -11 5 0 -7 -8 -12 -17 -10 -12 2 -18 -3 -17 -14 2 -26 -13 -22 -20 5 -6 21
-7 21 -20 4 -12 -15 -15 -16 -26 -2 -11 13 -15 14 -29 2 -9 -8 -26 -19 -38
-26 -18 -9 -20 -8 -16 9 3 12 0 20 -6 20 -7 0 -9 -5 -6 -10 4 -6 3 -10 -2 -9
-4 1 -10 0 -13 -1 -11 -4 -46 -11 -66 -13 -12 -2 -28 -8 -37 -15 -11 -10 -17
-9 -27 3 -12 14 -15 14 -32 -2 -17 -15 -21 -15 -29 -3 -5 8 -7 20 -4 27 2 6
-1 14 -8 16 -7 2 -8 8 -4 13 11 12 26 -16 19 -35 -5 -13 -3 -14 10 -4 8 7 18
10 21 6 4 -3 7 -1 7 4 0 6 11 10 25 8 27 -2 30 2 16 24 -6 9 -11 10 -15 2 -4
-6 -13 -11 -19 -11 -7 0 -3 7 7 15 22 17 45 5 47 -24 0 -12 2 -12 6 -2 4 11 7
11 13 0 7 -10 11 -10 25 1 9 7 14 19 11 26 -3 7 -1 16 4 19 4 3 7 -6 5 -20 -3
-31 5 -38 23 -19 7 8 8 14 2 14 -5 0 -10 8 -9 18 0 10 3 12 6 4 2 -6 10 -9 15
-6 7 4 8 2 4 -4 -8 -14 -4 -15 18 -6 14 5 14 9 4 23 -12 14 -11 14 4 2 10 -7
15 -17 12 -22 -9 -15 8 -10 28 7 13 13 21 14 31 5 11 -9 17 -8 27 3 6 9 9 20
5 27 -6 8 -2 8 14 0 11 -7 21 -18 21 -26 0 -7 4 -16 9 -20 9 -5 9 9 -2 45 -2
8 -2 12 0 7 3 -4 10 -4 16 0z m-939 -13 c3 -8 2 -12 -4 -9 -6 3 -10 10 -10 16
0 14 7 11 14 -7z m866 -4 c0 -5 -7 -7 -15 -4 -8 4 -15 8 -15 10 0 2 7 4 15 4
8 0 15 -4 15 -10z m-700 -25 c14 -8 21 -14 15 -14 -5 0 -21 6 -35 14 -14 8
-20 14 -15 14 6 0 21 -6 35 -14z m44 -11 c3 -8 2 -12 -4 -9 -6 3 -10 10 -10
16 0 14 7 11 14 -7z m231 -5 c-4 -5 -12 -9 -18 -8 -9 0 -8 2 1 6 6 2 9 10 6
15 -4 7 -2 8 5 4 6 -4 9 -12 6 -17z m235 11 c8 -5 12 -11 10 -14 -3 -2 -14 2
-24 10 -22 15 -10 19 14 4z m-511 -67 c-7 -10 -14 -19 -15 -21 -1 -1 -7 5 -15
15 -12 15 -12 16 3 10 10 -3 20 -2 23 3 4 6 9 10 12 10 3 0 -1 -8 -8 -17z
m281 -3 c13 7 21 7 26 -2 4 -6 3 -8 -3 -5 -6 4 -16 0 -23 -8 -9 -11 -15 -12
-25 -2 -7 7 -10 16 -7 22 3 5 7 4 10 -3 2 -8 9 -9 22 -2z m60 0 c0 -5 -5 -10
-11 -10 -5 0 -7 5 -4 10 3 6 8 10 11 10 2 0 4 -4 4 -10z"/>
<path d="M4116 3473 c-6 -14 -5 -15 5 -6 7 7 10 15 7 18 -3 3 -9 -2 -12 -12z"/>
<path d="M4045 3459 c11 -7 23 -16 26 -21 3 -5 11 -3 17 4 8 11 7 14 -6 14 -9
1 -26 4 -37 8 l-20 8 20 -13z"/>
<path d="M4623 2645 c0 -8 4 -12 9 -9 5 3 6 10 3 15 -9 13 -12 11 -12 -6z"/>
<path d="M4556 2228 c3 -5 10 -6 15 -3 13 9 11 12 -6 12 -8 0 -12 -4 -9 -9z"/>
<path d="M4547 2183 c5 -12 3 -14 -7 -8 -9 5 -11 4 -6 -3 4 -6 2 -20 -3 -31
-8 -14 -7 -22 3 -30 10 -9 13 -6 13 11 1 42 3 49 13 43 6 -3 10 0 10 8 0 8 -7
17 -14 20 -11 4 -13 1 -9 -10z"/>
<path d="M4505 2073 c-16 -36 -14 -45 5 -28 10 9 16 23 13 31 -7 18 -9 18 -18
-3z"/>
<path d="M573 1958 c3 -10 2 -20 -4 -23 -11 -7 -3 -25 12 -25 10 0 4 48 -7 59
-4 3 -4 -2 -1 -11z"/>
<path d="M587 1879 c7 -7 15 -10 18 -7 3 3 -2 9 -12 12 -14 6 -15 5 -6 -5z"/>
<path d="M4228 1616 c-19 -14 -23 -26 -10 -26 4 0 13 9 20 20 14 23 13 24 -10
6z"/>
<path d="M4200 1560 c-9 -6 -10 -10 -3 -10 6 0 15 5 18 10 8 12 4 12 -15 0z"/>
<path d="M4171 1522 c-1 -7 -5 -11 -9 -8 -5 3 -9 -1 -9 -8 0 -8 7 -13 16 -11
16 2 17 5 8 28 -4 9 -6 9 -6 -1z"/>
<path d="M3603 1103 c4 -3 1 -13 -6 -22 -11 -14 -10 -14 5 -2 16 12 16 31 1
31 -4 0 -3 -3 0 -7z"/>
<path d="M3465 1010 c-3 -5 -12 -7 -20 -3 -8 3 -15 0 -15 -7 0 -6 -4 -9 -9 -6
-9 6 -29 -13 -29 -27 0 -5 -4 -12 -8 -15 -4 -4 -4 -1 0 6 4 6 2 12 -3 12 -12
0 -15 -13 -5 -23 12 -11 34 6 34 27 0 14 3 17 8 8 7 -10 14 -8 34 7 14 11 28
17 32 14 3 -3 6 -1 6 5 0 14 -16 16 -25 2z"/>
<path d="M3250 881 c0 -7 -7 -11 -15 -8 -16 7 -31 -8 -17 -17 12 -7 49 21 39
30 -4 4 -7 2 -7 -5z"/>
<path d="M3157 837 l-17 -32 20 24 c17 20 26 41 18 41 -2 0 -11 -15 -21 -33z"/>
<path d="M1580 1003 c12 -26 37 -31 37 -8 0 11 -4 12 -10 6 -7 -7 -15 -5 -24
7 -13 15 -13 15 -3 -5z"/>
<path d="M1649 967 c6 -8 7 -18 3 -22 -4 -5 -1 -4 7 0 11 6 13 4 8 -8 -4 -11
-2 -14 9 -10 13 5 11 10 -7 29 -24 25 -39 33 -20 11z"/>
<path d="M1717 916 c-4 -9 -2 -18 4 -21 5 -4 6 -12 2 -18 -5 -8 -2 -8 9 0 8 7
19 9 24 5 5 -4 0 4 -11 18 -11 14 -20 26 -21 28 -1 2 -4 -4 -7 -12z"/>
<path d="M1780 881 c0 -6 4 -13 10 -16 6 -3 7 1 4 9 -7 18 -14 21 -14 7z"/>
<path d="M2986 801 c-15 -16 -22 -18 -33 -9 -11 9 -19 6 -36 -12 l-22 -24 23
19 c20 16 25 17 32 5 7 -12 12 -12 21 -3 9 9 16 9 25 2 15 -13 24 0 15 24 -6
17 -8 17 -25 -2z"/>
<path d="M2876 765 c4 -8 8 -15 10 -15 2 0 4 7 4 15 0 8 -4 15 -10 15 -5 0 -7
-7 -4 -15z"/>
<path d="M2710 740 c0 -16 17 -20 28 -7 8 10 6 13 -9 14 -10 1 -19 -2 -19 -7z"/>
<path d="M4530 4119 c0 -5 5 -7 10 -4 6 3 10 8 10 11 0 2 -4 4 -10 4 -5 0 -10
-5 -10 -11z"/>
<path d="M4626 4122 c-2 -4 4 -8 14 -8 10 0 16 4 14 8 -3 4 -9 8 -14 8 -5 0
-11 -4 -14 -8z"/>
<path d="M4564 4082 c4 -3 14 -7 22 -8 9 -1 13 0 10 4 -4 3 -14 7 -22 8 -9 1
-13 0 -10 -4z"/>
<path d="M4930 4079 c0 -5 5 -7 10 -4 6 3 10 8 10 11 0 2 -4 4 -10 4 -5 0 -10
-5 -10 -11z"/>
<path d="M4543 4050 c2 -8 13 -15 24 -16 15 -1 20 3 16 13 -5 12 -7 12 -14 1
-7 -11 -11 -10 -20 2 -9 13 -10 13 -6 0z"/>
<path d="M4475 4021 c-3 -5 -2 -12 3 -15 5 -3 9 1 9 9 0 17 -3 19 -12 6z"/>
<path d="M4507 4019 c7 -9 10 -19 6 -22 -3 -4 -1 -7 5 -7 17 0 15 16 -5 31
-16 12 -17 12 -6 -2z"/>
<path d="M4537 4009 c4 -13 8 -18 11 -10 2 7 -1 18 -6 23 -8 8 -9 4 -5 -13z"/>
<path d="M4916 4022 c-3 -5 1 -9 9 -9 8 0 12 4 9 9 -3 4 -7 8 -9 8 -2 0 -6 -4
-9 -8z"/>
<path d="M4933 3955 c0 -8 4 -12 9 -9 4 3 8 9 8 15 0 5 -4 9 -8 9 -5 0 -9 -7
-9 -15z"/>
<path d="M4460 3956 c0 -2 7 -6 15 -10 8 -3 15 -1 15 4 0 6 -7 10 -15 10 -8 0
-15 -2 -15 -4z"/>
<path d="M4404 3918 l-19 -23 23 19 c12 11 22 21 22 23 0 8 -8 2 -26 -19z"/>
<path d="M4859 3935 c-1 -3 -2 -10 -3 -17 0 -6 -7 -13 -14 -16 -8 -2 -10 3 -6
15 5 14 4 15 -4 3 -6 -8 -9 -17 -6 -21 2 -4 -6 -9 -18 -12 -12 -4 -19 -9 -15
-13 4 -4 -1 -16 -10 -27 -10 -11 -13 -17 -6 -14 6 4 14 3 18 -3 4 -6 13 -7 23
-1 22 11 44 3 35 -12 -3 -7 -2 -9 2 -4 5 4 10 18 11 30 2 12 0 16 -2 10 -3 -7
-10 -13 -15 -13 -6 0 -7 5 -4 10 3 6 1 10 -4 10 -6 0 -11 -4 -11 -10 0 -5 -5
-10 -12 -10 -6 0 -8 3 -5 7 4 3 2 12 -4 19 -8 10 -3 11 22 7 27 -4 31 -2 25
12 -4 12 -2 16 8 12 11 -4 13 -1 9 10 -5 12 -3 14 8 8 12 -8 12 -6 0 8 -14 17
-20 21 -22 12z m-52 -90 c0 -8 -4 -12 -9 -9 -5 3 -6 10 -3 15 9 13 12 11 12
-6z"/>
<path d="M4354 3888 l-19 -23 23 19 c12 11 22 21 22 23 0 8 -8 2 -26 -19z"/>
<path d="M4894 3899 c-3 -6 -1 -16 5 -22 9 -9 10 -7 5 8 l-7 20 24 -20 24 -20
-19 23 c-22 25 -23 26 -32 11z"/>
<path d="M4876 3867 c3 -10 9 -15 12 -12 3 3 0 11 -7 18 -10 9 -11 8 -5 -6z"/>
<path d="M4330 3826 c0 -2 6 -9 14 -15 11 -9 16 -9 22 0 4 8 3 9 -4 5 -7 -4
-12 -2 -12 3 0 6 -4 11 -10 11 -5 0 -10 -2 -10 -4z"/>
<path d="M4277 3792 c-15 -17 -15 -18 6 -19 12 0 16 1 9 4 -10 4 -10 8 -1 19
17 20 5 17 -14 -4z"/>
<path d="M4314 3786 c0 -14 4 -22 8 -20 4 3 8 0 8 -5 0 -6 -7 -11 -15 -11 -8
0 -15 -4 -15 -10 0 -5 6 -7 14 -4 19 7 50 54 36 54 -5 0 -10 -5 -10 -11 0 -5
-4 -8 -10 -4 -5 3 -7 12 -3 20 3 8 1 15 -4 15 -5 0 -9 -11 -9 -24z"/>
<path d="M4876 3798 c3 -5 10 -6 15 -3 13 9 11 12 -6 12 -8 0 -12 -4 -9 -9z"/>
<path d="M4840 3796 c0 -2 7 -7 16 -10 8 -3 12 -2 9 4 -6 10 -25 14 -25 6z"/>
<path d="M2430 3779 c0 -5 5 -7 10 -4 6 3 10 8 10 11 0 2 -4 4 -10 4 -5 0 -10
-5 -10 -11z"/>
<path d="M2490 3779 c0 -5 5 -7 10 -4 6 3 10 8 10 11 0 2 -4 4 -10 4 -5 0 -10
-5 -10 -11z"/>
<path d="M4746 3782 c-3 -5 1 -9 9 -9 8 0 12 4 9 9 -3 4 -7 8 -9 8 -2 0 -6 -4
-9 -8z"/>
<path d="M2684 3759 c-3 -6 -2 -15 3 -20 5 -5 9 -1 9 11 0 23 -2 24 -12 9z"/>
<path d="M4805 3760 c-3 -5 -1 -10 4 -10 6 0 11 5 11 10 0 6 -2 10 -4 10 -3 0
-8 -4 -11 -10z"/>
<path d="M2430 3756 c0 -2 8 -10 18 -17 15 -13 16 -12 3 4 -13 16 -21 21 -21
13z"/>
<path d="M2225 3740 c-3 -6 1 -7 9 -4 18 7 21 14 7 14 -6 0 -13 -4 -16 -10z"/>
<path d="M2260 3746 c0 -2 7 -9 15 -16 9 -7 15 -8 15 -2 0 5 -7 12 -15 16 -8
3 -15 4 -15 2z"/>
<path d="M2304 3730 c0 -13 4 -16 10 -10 7 7 7 13 0 20 -6 6 -10 3 -10 -10z"/>
<path d="M2508 3735 c4 -5 7 -13 7 -17 0 -3 2 -8 5 -10 3 -1 4 -1 3 1 -1 2 2
11 7 20 6 13 4 17 -10 17 -10 0 -16 -5 -12 -11z"/>
<path d="M2976 3741 c-3 -5 1 -14 9 -21 8 -7 12 -17 8 -23 -4 -6 -1 -7 6 -3 9
6 9 12 -3 25 -9 10 -13 21 -9 24 3 4 4 7 0 7 -3 0 -8 -4 -11 -9z"/>
<path d="M3090 3740 c0 -5 5 -10 11 -10 5 0 7 5 4 10 -3 6 -8 10 -11 10 -2 0
-4 -4 -4 -10z"/>
<path d="M3150 3741 c0 -6 4 -13 10 -16 6 -3 7 1 4 9 -7 18 -14 21 -14 7z"/>
<path d="M2417 3725 c3 -8 9 -12 14 -9 12 7 11 11 -5 17 -10 4 -13 1 -9 -8z"/>
<path d="M2550 3729 c0 -5 5 -7 10 -4 6 3 10 8 10 11 0 2 -4 4 -10 4 -5 0 -10
-5 -10 -11z"/>
<path d="M2580 3736 c0 -2 7 -7 16 -10 8 -3 12 -2 9 4 -6 10 -25 14 -25 6z"/>
<path d="M2657 3729 c7 -7 15 -10 18 -7 3 3 -2 9 -12 12 -14 6 -15 5 -6 -5z"/>
<path d="M2742 3736 c2 -1 10 -7 19 -14 13 -10 18 -10 22 0 3 8 -5 14 -20 14
-13 1 -23 1 -21 0z"/>
<path d="M2814 3718 c0 -11 4 -14 12 -8 6 6 13 8 16 5 2 -3 5 1 5 8 0 7 -8 13
-17 13 -8 0 -16 -8 -16 -18z"/>
<path d="M2935 3731 c-3 -6 -14 -8 -25 -6 -11 2 -22 1 -24 -3 -3 -4 10 -8 28
-8 20 0 33 5 33 13 0 15 -4 16 -12 4z"/>
<path d="M4707 3724 c2 -7 -4 -15 -15 -18 -19 -6 -60 -56 -47 -56 4 0 -3 -13
-15 -30 -12 -16 -18 -30 -14 -30 3 0 1 -7 -6 -15 -7 -8 -17 -12 -24 -8 -6 4
-5 0 2 -9 10 -13 10 -18 1 -24 -7 -4 -9 -3 -6 3 4 6 0 13 -8 17 -8 3 -15 2
-15 -3 0 -12 26 -32 32 -25 3 3 9 1 13 -5 3 -6 -1 -11 -9 -11 -19 0 -20 -8 -1
-40 17 -29 20 -18 4 12 -10 18 -9 20 5 15 10 -4 15 -3 12 2 -8 12 18 21 44 16
11 -2 18 0 15 5 -3 5 -18 7 -33 5 -24 -3 -28 0 -30 23 -1 26 -1 26 13 8 8 -11
18 -16 22 -12 4 4 1 11 -7 16 -13 9 -13 10 0 10 13 0 13 1 0 10 -13 8 -13 10
1 10 9 0 19 7 23 15 3 8 11 15 17 15 8 0 8 -4 0 -13 -8 -10 -7 -17 1 -25 8 -8
8 -15 -2 -27 -7 -8 -8 -15 -2 -15 15 0 24 31 12 45 -8 9 -8 15 0 20 6 3 8 9 6
13 -5 9 19 44 31 43 4 -1 8 7 8 17 0 25 18 42 31 31 17 -14 53 -19 59 -9 3 5
-3 7 -14 5 -10 -2 -29 4 -42 13 -29 20 -69 24 -62 6z m17 -21 c-16 -13 -21
-21 -11 -17 11 4 17 1 17 -8 0 -18 -27 -19 -34 -2 -3 8 4 20 14 27 11 8 18 16
15 19 -3 2 2 5 12 5 12 0 8 -7 -13 -24z m-47 -76 c-12 -10 -31 -22 -42 -28
-20 -10 -20 -10 -1 5 11 9 16 16 12 16 -4 0 -4 6 1 13 4 6 8 14 9 17 0 3 4 13
9 24 7 17 9 17 21 -5 11 -21 10 -26 -9 -42z"/>
<path d="M4669 3665 c-1 -3 -2 -8 -3 -12 -1 -5 -5 -14 -10 -21 -7 -11 -4 -11
13 0 12 7 17 14 11 16 -6 2 -8 8 -4 13 3 5 3 9 0 9 -3 0 -7 -2 -7 -5z"/>
<path d="M4790 3728 c0 -4 6 -8 14 -8 8 0 17 4 20 8 2 4 -4 8 -15 8 -10 0 -19
-4 -19 -8z"/>
<path d="M1920 3720 c-9 -6 -10 -10 -3 -10 6 0 15 5 18 10 8 12 4 12 -15 0z"/>
<path d="M2013 3711 c0 -11 5 -18 9 -15 4 3 5 11 1 19 -7 21 -12 19 -10 -4z"/>
<path d="M2330 3720 c0 -5 5 -10 10 -10 6 0 10 5 10 10 0 6 -4 10 -10 10 -5 0
-10 -4 -10 -10z"/>
<path d="M4236 3711 c-3 -4 4 -17 17 -27 22 -19 22 -19 4 2 -9 11 -14 24 -10
27 3 4 4 7 0 7 -3 0 -8 -4 -11 -9z"/>
<path d="M1716 3702 c-3 -5 1 -9 9 -9 8 0 12 4 9 9 -3 4 -7 8 -9 8 -2 0 -6 -4
-9 -8z"/>
<path d="M1774 3703 c3 -6 -2 -16 -11 -22 -16 -9 -16 -10 3 -8 21 1 26 19 9
34 -4 4 -5 3 -1 -4z"/>
<path d="M1957 3690 c-9 -11 -13 -20 -7 -20 5 0 14 9 20 20 6 11 9 20 8 20 -2
0 -11 -9 -21 -20z"/>
<path d="M2055 3700 c3 -5 8 -10 11 -10 2 0 4 5 4 10 0 6 -5 10 -11 10 -5 0
-7 -4 -4 -10z"/>
<path d="M2250 3698 c0 -3 9 -6 20 -5 11 1 20 5 20 9 0 3 -9 6 -20 5 -11 -1
-20 -5 -20 -9z"/>
<path d="M3090 3699 c0 -5 5 -7 10 -4 6 3 10 8 10 11 0 2 -4 4 -10 4 -5 0 -10
-5 -10 -11z"/>
<path d="M4213 3692 c0 -12 5 -22 9 -22 11 0 10 12 -2 30 -7 12 -9 10 -7 -8z"/>
<path d="M1870 3691 c0 -7 -5 -9 -10 -6 -6 4 -9 1 -8 -6 2 -7 -3 -14 -9 -15
-7 -1 -17 -2 -23 -3 -5 0 -10 -6 -10 -12 0 -8 4 -9 13 0 8 6 16 9 19 6 3 -3
13 4 23 15 10 11 15 23 12 27 -4 3 -7 1 -7 -6z"/>
<path d="M1986 3683 c-6 -14 -5 -15 5 -6 7 7 10 15 7 18 -3 3 -9 -2 -12 -12z"/>
<path d="M2932 3695 c3 -3 16 -8 28 -10 12 -2 20 -1 16 2 -4 4 -16 8 -28 10
-12 2 -19 1 -16 -2z"/>
<path d="M3130 3696 c0 -2 7 -9 15 -16 9 -7 15 -8 15 -2 0 5 -7 12 -15 16 -8
3 -15 4 -15 2z"/>
<path d="M3290 3696 c0 -2 8 -10 18 -17 15 -13 16 -12 3 4 -13 16 -21 21 -21
13z"/>
<path d="M3335 3689 c-4 -6 -5 -12 -2 -15 2 -3 7 2 10 11 7 17 1 20 -8 4z"/>
<path d="M3536 3687 c3 -10 9 -15 12 -12 3 3 0 11 -7 18 -10 9 -11 8 -5 -6z"/>
<path d="M1490 3679 c0 -5 5 -7 10 -4 6 3 10 8 10 11 0 2 -4 4 -10 4 -5 0 -10
-5 -10 -11z"/>
<path d="M2025 3680 c-3 -6 1 -7 9 -4 18 7 21 14 7 14 -6 0 -13 -4 -16 -10z"/>
<path d="M4150 3679 c0 -5 5 -7 10 -4 6 3 10 8 10 11 0 2 -4 4 -10 4 -5 0 -10
-5 -10 -11z"/>
<path d="M4768 3672 c9 -10 19 -17 21 -16 6 5 -20 34 -30 34 -5 0 -1 -8 9 -18z"/>
<path d="M3176 3671 c-4 -5 3 -7 14 -4 23 6 26 13 6 13 -8 0 -17 -4 -20 -9z"/>
<path d="M3615 3669 c-4 -6 -5 -12 -2 -15 2 -3 7 2 10 11 7 17 1 20 -8 4z"/>
<path d="M1643 3663 c-16 -6 -17 -29 -1 -39 7 -4 8 -3 4 5 -4 6 -2 18 4 26 13
16 12 16 -7 8z"/>
<path d="M1680 3660 c-8 -5 -10 -10 -5 -10 6 0 3 -5 -5 -10 -9 -6 -10 -10 -3
-10 7 0 17 9 23 20 12 23 11 24 -10 10z"/>
<path d="M3297 3659 c7 -7 15 -10 18 -7 3 3 -2 9 -12 12 -14 6 -15 5 -6 -5z"/>
<path d="M3385 3660 c-3 -6 1 -7 9 -4 18 7 21 14 7 14 -6 0 -13 -4 -16 -10z"/>
<path d="M4753 3665 c4 -5 -5 -17 -20 -27 -16 -10 -24 -18 -19 -18 5 0 4 -6
-2 -13 -8 -10 -6 -13 11 -14 16 -2 18 0 8 6 -11 7 -9 14 13 34 20 19 24 27 14
33 -7 4 -10 3 -5 -1z"/>
<path d="M1711 3644 c0 -11 3 -14 6 -6 3 7 2 16 -1 19 -3 4 -6 -2 -5 -13z"/>
<path d="M3450 3645 c-7 -9 -11 -17 -9 -20 3 -2 10 5 17 15 14 24 10 26 -8 5z"/>
<path d="M3410 3640 c0 -5 5 -10 10 -10 6 0 10 5 10 10 0 6 -4 10 -10 10 -5 0
-10 -4 -10 -10z"/>
<path d="M3488 3638 c10 -13 10 -17 0 -20 -8 -3 -7 -6 4 -10 20 -8 18 17 -2
35 -12 10 -12 9 -2 -5z"/>
<path d="M1400 3610 c6 -11 13 -20 16 -20 2 0 0 9 -6 20 -6 11 -13 20 -16 20
-2 0 0 -9 6 -20z"/>
<path d="M1490 3619 c0 -5 5 -7 10 -4 6 3 10 8 10 11 0 2 -4 4 -10 4 -5 0 -10
-5 -10 -11z"/>
<path d="M1517 3615 c-4 -8 -3 -16 1 -19 4 -3 9 4 9 15 2 23 -3 25 -10 4z"/>
<path d="M1575 3620 c-2 -3 5 -7 16 -7 10 -1 19 2 19 6 0 9 -29 10 -35 1z"/>
<path d="M3536 3619 c3 -5 12 -9 20 -9 9 0 12 -5 8 -12 -4 -7 -3 -8 5 -4 15
10 7 22 -19 29 -11 3 -18 1 -14 -4z"/>
<path d="M4220 3619 c0 -5 5 -7 10 -4 6 3 10 8 10 11 0 2 -4 4 -10 4 -5 0 -10
-5 -10 -11z"/>
<path d="M1473 3601 c0 -11 5 -18 9 -15 4 3 5 11 1 19 -7 21 -12 19 -10 -4z"/>
<path d="M4142 3600 c0 -14 2 -19 5 -12 2 6 2 18 0 25 -3 6 -5 1 -5 -13z"/>
<path d="M1315 3600 c-3 -5 -1 -10 4 -10 6 0 11 5 11 10 0 6 -2 10 -4 10 -3 0
-8 -4 -11 -10z"/>
<path d="M3527 3599 c7 -7 15 -10 18 -7 3 3 -2 9 -12 12 -14 6 -15 5 -6 -5z"/>
<path d="M1426 3585 c-11 -8 -16 -15 -10 -15 5 0 18 7 28 15 11 8 16 15 10 15
-5 0 -18 -7 -28 -15z"/>
<path d="M3736 3578 c3 -4 11 -5 19 -1 21 7 19 12 -4 10 -11 0 -18 -5 -15 -9z"/>
<path d="M3879 3573 c-13 -16 -12 -17 4 -4 9 7 17 15 17 17 0 8 -8 3 -21 -13z"/>
<path d="M4167 3573 c4 -11 2 -14 -5 -9 -7 4 -12 2 -12 -6 0 -9 -2 -10 -8 -1
-5 8 -11 8 -24 -1 -15 -11 -12 -13 24 -11 29 1 42 7 44 18 1 8 -4 18 -11 21
-10 3 -12 0 -8 -11z"/>
<path d="M1206 3561 c-12 -13 -14 -21 -6 -26 6 -4 14 -4 17 -1 4 3 1 6 -6 6
-7 0 -9 5 -6 10 4 6 10 8 14 6 4 -3 8 1 8 9 0 19 0 19 -21 -4z"/>
<path d="M1150 3566 c0 -2 7 -7 16 -10 8 -3 12 -2 9 4 -6 10 -25 14 -25 6z"/>
<path d="M1283 3563 c9 -2 14 -9 11 -15 -4 -7 -2 -8 5 -4 15 10 4 26 -17 25
-15 -1 -15 -2 1 -6z"/>
<path d="M3696 3561 c-4 -5 3 -7 14 -4 23 6 26 13 6 13 -8 0 -17 -4 -20 -9z"/>
<path d="M3770 3566 c0 -2 7 -7 16 -10 8 -3 12 -2 9 4 -6 10 -25 14 -25 6z"/>
<path d="M3814 3545 c1 -13 5 -27 9 -31 3 -4 4 3 2 16 -3 16 0 20 10 16 21 -8
18 1 -3 13 -16 9 -19 6 -18 -14z"/>
<path d="M1025 3520 c-3 -6 1 -7 9 -4 18 7 21 14 7 14 -6 0 -13 -4 -16 -10z"/>
<path d="M3925 3519 c-4 -6 -5 -12 -2 -15 2 -3 7 2 10 11 7 17 1 20 -8 4z"/>
<path d="M4016 3513 c-4 -11 -1 -11 14 -3 24 13 25 17 5 17 -8 0 -16 -6 -19
-14z"/>
<path d="M1080 3491 c-7 -15 -7 -22 2 -27 7 -4 10 -4 6 1 -4 4 -3 16 3 26 5
11 7 19 5 19 -3 0 -10 -9 -16 -19z"/>
<path d="M4686 3502 c-3 -5 1 -9 9 -9 8 0 12 4 9 9 -3 4 -7 8 -9 8 -2 0 -6 -4
-9 -8z"/>
<path d="M997 3493 c-10 -9 -9 -23 1 -23 5 0 9 7 9 15 0 17 -1 18 -10 8z"/>
<path d="M4528 3489 c10 -13 9 -19 -3 -29 -8 -7 -15 -18 -15 -24 0 -6 5 -4 10
4 9 13 10 13 10 0 0 -12 2 -12 9 -2 4 8 12 14 17 14 5 0 8 4 7 9 -2 5 1 9 7 9
5 0 7 7 4 15 -5 11 -10 12 -18 5 -9 -6 -17 -6 -26 3 -12 10 -12 9 -2 -4z m29
-22 c0 -8 -6 -14 -14 -14 -9 0 -10 4 -2 14 6 7 12 13 14 13 1 0 2 -6 2 -13z"/>
<path d="M4627 3487 c-3 -8 0 -14 7 -14 7 0 13 6 13 14 0 7 -4 13 -8 13 -4 0
-9 -6 -12 -13z"/>
<path d="M950 3481 c0 -6 4 -13 10 -16 6 -3 7 1 4 9 -7 18 -14 21 -14 7z"/>
<path d="M4667 3479 c7 -7 15 -10 18 -7 3 3 -2 9 -12 12 -14 6 -15 5 -6 -5z"/>
<path d="M987 3454 c-8 -8 3 -34 15 -34 6 0 6 6 -1 14 -9 11 -9 15 1 19 7 3 8
6 2 6 -6 1 -13 -2 -17 -5z"/>
<path d="M4580 3447 c0 -9 5 -17 11 -17 5 0 7 -5 3 -12 -4 -7 -3 -8 5 -4 9 6
9 12 -1 24 -7 10 -14 19 -15 21 -2 2 -3 -3 -3 -12z"/>
<path d="M901 3434 c0 -11 3 -14 6 -6 3 7 2 16 -1 19 -3 4 -6 -2 -5 -13z"/>
<path d="M926 3438 c3 -5 10 -6 15 -3 13 9 11 12 -6 12 -8 0 -12 -4 -9 -9z"/>
<path d="M4627 3439 c7 -7 15 -10 18 -7 3 3 -2 9 -12 12 -14 6 -15 5 -6 -5z"/>
<path d="M4636 3407 c3 -10 9 -15 12 -12 3 3 0 11 -7 18 -10 9 -11 8 -5 -6z"/>
<path d="M837 3395 c-8 -19 12 -30 26 -16 9 9 8 11 -6 5 -13 -5 -16 -2 -11 10
3 9 4 16 1 16 -3 0 -7 -7 -10 -15z"/>
<path d="M755 3360 c3 -5 8 -10 11 -10 2 0 4 5 4 10 0 6 -5 10 -11 10 -5 0 -7
-4 -4 -10z"/>
<path d="M795 3360 c3 -5 8 -10 11 -10 2 0 4 5 4 10 0 6 -5 10 -11 10 -5 0 -7
-4 -4 -10z"/>
<path d="M822 3365 c4 -4 3 -14 -3 -22 -7 -8 -8 -13 -1 -13 15 0 23 28 9 36
-7 4 -9 4 -5 -1z"/>
<path d="M4535 3341 c-9 -15 15 -25 28 -12 9 9 7 10 -7 5 -13 -5 -17 -4 -12 4
4 7 5 12 2 12 -3 0 -7 -4 -11 -9z"/>
<path d="M653 3279 c-2 -23 3 -25 10 -4 4 8 3 16 -1 19 -4 3 -9 -4 -9 -15z"/>
<path d="M686 3278 c3 -4 0 -8 -5 -8 -6 0 -11 -5 -11 -10 0 -6 8 -5 20 2 24
15 26 25 5 25 -8 0 -12 -4 -9 -9z"/>
<path d="M4559 3275 c-1 -3 -2 -8 -3 -12 -1 -5 -5 -15 -10 -23 -7 -12 -6 -13
4 -3 13 12 23 43 14 43 -2 0 -5 -2 -5 -5z"/>
<path d="M4595 3260 c-3 -5 -1 -10 4 -10 6 0 11 5 11 10 0 6 -2 10 -4 10 -3 0
-8 -4 -11 -10z"/>
<path d="M605 3240 c-18 -20 -18 -21 0 -14 14 6 16 4 10 -7 -4 -8 -4 -11 0 -6
7 6 16 47 10 47 -1 0 -10 -9 -20 -20z"/>
<path d="M574 3194 c1 -8 6 -17 11 -21 4 -4 5 -2 1 5 -4 6 -2 12 3 12 6 0 11
4 11 8 0 5 -6 9 -14 9 -7 0 -13 -6 -12 -13z"/>
<path d="M4443 3175 c0 -8 4 -12 9 -9 5 3 6 10 3 15 -9 13 -12 11 -12 -6z"/>
<path d="M4536 3162 c-3 -4 4 -9 15 -9 23 -2 25 3 4 10 -8 4 -16 3 -19 -1z"/>
<path d="M540 3152 c0 -6 -8 -9 -17 -6 -15 5 -16 4 -3 -5 16 -11 40 3 27 16
-4 3 -7 1 -7 -5z"/>
<path d="M456 3138 c3 -5 10 -6 15 -3 13 9 11 12 -6 12 -8 0 -12 -4 -9 -9z"/>
<path d="M507 3121 c9 -11 8 -19 -4 -37 -8 -13 -19 -22 -23 -19 -5 3 -12 1
-15 -5 -4 -6 -3 -10 2 -9 20 3 34 -2 28 -11 -3 -5 -13 -7 -23 -4 -14 5 -14 4
-2 -4 16 -12 44 3 35 18 -9 14 7 41 21 36 7 -3 16 0 20 7 4 7 4 9 0 5 -5 -4
-18 3 -30 15 -11 13 -16 16 -9 8z"/>
<path d="M4576 3107 c3 -10 9 -15 12 -12 3 3 0 11 -7 18 -10 9 -11 8 -5 -6z"/>
<path d="M4630 3081 c0 -6 4 -12 8 -15 5 -3 9 1 9 9 0 8 -4 15 -9 15 -4 0 -8
-4 -8 -9z"/>
<path d="M439 3023 c0 -5 -2 -16 -4 -25 -2 -10 0 -18 5 -18 4 0 8 11 8 25 0
22 -7 36 -9 18z"/>
<path d="M355 3011 c-3 -5 -2 -12 3 -15 5 -3 9 1 9 9 0 17 -3 19 -12 6z"/>
<path d="M4673 3005 c0 -8 4 -12 9 -9 5 3 6 10 3 15 -9 13 -12 11 -12 -6z"/>
<path d="M460 2999 c0 -5 5 -7 10 -4 6 3 10 8 10 11 0 2 -4 4 -10 4 -5 0 -10
-5 -10 -11z"/>
<path d="M4566 2998 c3 -4 12 -4 22 -1 14 6 15 4 5 -8 -8 -9 -9 -20 -3 -29 5
-8 7 -24 4 -35 -4 -18 -4 -18 6 -3 8 13 8 24 0 37 -7 13 -7 22 0 26 19 11 10
25 -14 23 -14 -1 -22 -6 -20 -10z"/>
<path d="M390 2986 c0 -2 7 -7 16 -10 8 -3 12 -2 9 4 -6 10 -25 14 -25 6z"/>
<path d="M4614 2978 c-3 -5 -2 -8 3 -7 20 3 27 -2 13 -11 -12 -7 -10 -9 7 -7
15 1 19 5 13 13 -6 6 -8 13 -5 16 3 2 -2 5 -10 5 -9 0 -18 -4 -21 -9z"/>
<path d="M360 2965 c0 -2 6 -8 13 -14 10 -8 14 -7 14 2 0 8 -6 14 -14 14 -7 0
-13 -1 -13 -2z"/>
<path d="M434 2961 c4 -5 1 -12 -4 -14 -6 -3 -5 -4 2 -3 15 3 23 26 8 26 -6 0
-9 -4 -6 -9z"/>
<path d="M4632 2931 c-11 -7 -11 -9 0 -14 9 -3 15 1 15 9 0 8 -1 14 -1 14 -1
0 -7 -4 -14 -9z"/>
<path d="M422 2910 c7 -10 14 -18 15 -16 6 6 -9 36 -18 36 -5 0 -4 -9 3 -20z"/>
<path d="M4690 2921 c0 -6 4 -13 10 -16 6 -3 7 1 4 9 -7 18 -14 21 -14 7z"/>
<path d="M336 2902 c-3 -5 1 -9 9 -9 8 0 12 4 9 9 -3 4 -7 8 -9 8 -2 0 -6 -4
-9 -8z"/>
<path d="M377 2904 c-13 -13 6 -34 26 -28 20 6 20 6 -1 -28 -13 -21 -18 -39
-13 -47 6 -9 11 -10 15 -2 4 6 11 9 15 7 4 -3 8 2 8 10 0 10 -4 11 -11 4 -22
-22 -24 -8 -5 25 12 19 17 36 12 37 -4 0 -12 2 -18 3 -5 2 -14 4 -20 5 -5 1
-1 5 10 10 15 6 16 9 4 9 -9 1 -18 -2 -22 -5z"/>
<path d="M4635 2890 c-8 -13 3 -30 18 -30 8 0 7 3 -2 9 -7 5 -10 14 -7 20 4 6
5 11 2 11 -3 0 -8 -4 -11 -10z"/>
<path d="M4673 2846 c-2 -19 -1 -19 8 -3 6 9 16 14 22 11 7 -4 8 -3 4 1 -15
17 -33 12 -34 -9z"/>
<path d="M357 2835 c-4 -8 -3 -16 1 -19 4 -3 9 4 9 15 2 23 -3 25 -10 4z"/>
<path d="M4678 2796 c-13 -18 -13 -23 -3 -23 8 0 12 4 9 8 -2 4 1 9 7 11 7 2
10 9 8 15 -2 6 -11 1 -21 -11z"/>
<path d="M333 2776 c-3 -5 -1 -6 5 -2 5 3 12 1 14 -5 2 -7 8 -7 15 3 10 11 8
14 -8 14 -11 0 -23 -5 -26 -10z"/>
<path d="M4710 2766 c0 -2 7 -7 16 -10 8 -3 12 -2 9 4 -6 10 -25 14 -25 6z"/>
<path d="M4677 2719 c17 -34 19 -35 19 -10 0 10 -8 24 -17 29 -16 10 -16 9 -2
-19z"/>
<path d="M355 2720 c3 -5 8 -10 11 -10 2 0 4 5 4 10 0 6 -5 10 -11 10 -5 0 -7
-4 -4 -10z"/>
<path d="M4660 2679 c0 -5 5 -7 10 -4 6 3 10 8 10 11 0 2 -4 4 -10 4 -5 0 -10
-5 -10 -11z"/>
<path d="M355 2632 c1 -15 -2 -36 -8 -47 -7 -16 -7 -18 3 -8 14 13 22 71 10
78 -4 2 -6 -8 -5 -23z"/>
<path d="M373 2570 c-1 -11 3 -20 8 -20 6 0 7 5 4 10 -11 17 17 11 31 -7 13
-17 14 -17 8 0 -5 15 -33 37 -46 37 -2 0 -4 -9 -5 -20z"/>
<path d="M4684 2579 c-3 -6 -2 -15 3 -20 5 -5 9 -1 9 11 0 23 -2 24 -12 9z"/>
<path d="M4630 2562 c0 -4 9 -13 20 -19 14 -9 21 -10 26 -1 4 7 3 8 -5 4 -6
-4 -14 0 -17 8 -6 16 -24 22 -24 8z"/>
<path d="M334 2538 c-4 -6 -3 -8 4 -4 5 3 12 1 14 -6 3 -8 6 -9 11 -1 4 6 0
13 -8 17 -8 3 -17 0 -21 -6z"/>
<path d="M353 2495 c0 -8 4 -12 9 -9 4 3 8 9 8 15 0 5 -4 9 -8 9 -5 0 -9 -7
-9 -15z"/>
<path d="M4620 2430 c11 -16 26 -33 32 -36 7 -4 -1 9 -16 29 -34 44 -46 50
-16 7z"/>
<path d="M4680 2440 c-12 -7 -10 -9 7 -7 12 0 19 5 17 9 -6 10 -6 10 -24 -2z"/>
<path d="M385 2398 c3 -12 10 -25 17 -30 10 -6 10 -8 1 -8 -7 0 -13 -5 -13
-12 0 -9 3 -9 12 0 18 18 32 14 17 -5 -10 -11 -10 -14 -1 -9 7 4 12 1 12 -8 0
-22 -16 -20 -40 4 -11 11 -20 16 -20 11 0 -12 54 -51 70 -51 6 0 8 -5 5 -10
-4 -7 -12 -7 -24 0 -13 6 -24 5 -37 -6 -18 -15 -18 -15 2 -5 11 5 26 6 34 1 8
-5 17 -7 21 -4 4 2 10 0 14 -6 3 -5 0 -10 -7 -10 -7 0 -2 -7 10 -16 12 -8 19
-21 16 -27 -5 -8 -3 -8 6 0 12 11 10 18 -7 42 -17 22 -19 31 -10 41 8 8 8 11
1 7 -8 -5 -11 6 -9 31 2 42 -13 84 -29 79 -6 -3 -19 0 -28 4 -14 7 -16 5 -13
-13z m47 -13 c-2 -4 2 -12 10 -16 8 -5 9 -9 2 -9 -7 0 -22 9 -35 20 l-24 20
25 -4 c14 -1 23 -7 22 -11z m9 -78 c-10 -9 -11 -8 -5 6 3 10 9 15 12 12 3 -3
0 -11 -7 -18z"/>
<path d="M354 2386 c1 -8 5 -18 8 -22 4 -3 5 1 4 10 -1 8 -5 18 -8 22 -4 3 -5
-1 -4 -10z"/>
<path d="M4667 2387 c-3 -8 1 -14 8 -14 7 0 11 6 8 14 -3 7 -6 13 -8 13 -2 0
-5 -6 -8 -13z"/>
<path d="M366 2302 c-3 -5 1 -9 9 -9 8 0 12 4 9 9 -3 4 -7 8 -9 8 -2 0 -6 -4
-9 -8z"/>
<path d="M392 2251 c-11 -6 -10 -10 4 -15 9 -4 22 -2 28 4 8 8 6 9 -8 4 -13
-5 -17 -4 -12 4 8 14 6 15 -12 3z"/>
<path d="M404 2199 c-3 -6 -2 -15 4 -21 6 -6 12 -6 17 3 6 8 4 10 -5 4 -10 -6
-12 -4 -7 8 7 19 2 23 -9 6z"/>
<path d="M4630 2181 c0 -6 4 -13 10 -16 6 -3 7 1 4 9 -7 18 -14 21 -14 7z"/>
<path d="M4611 2170 c0 -8 4 -22 9 -30 12 -18 12 -2 0 25 -6 13 -9 15 -9 5z"/>
<path d="M435 2160 c3 -5 8 -10 11 -10 2 0 4 5 4 10 0 6 -5 10 -11 10 -5 0 -7
-4 -4 -10z"/>
<path d="M423 2122 c-1 -22 0 -24 9 -8 6 10 6 22 2 26 -5 5 -10 -3 -11 -18z"/>
<path d="M4586 2142 c-3 -5 1 -9 9 -9 8 0 12 4 9 9 -3 4 -7 8 -9 8 -2 0 -6 -4
-9 -8z"/>
<path d="M4680 2140 c-9 -6 -10 -10 -3 -10 6 0 15 5 18 10 8 12 4 12 -15 0z"/>
<path d="M390 2119 c0 -5 5 -7 10 -4 6 3 10 8 10 11 0 2 -4 4 -10 4 -5 0 -10
-5 -10 -11z"/>
<path d="M4588 2113 c7 -3 16 -2 19 1 4 3 -2 6 -13 5 -11 0 -14 -3 -6 -6z"/>
<path d="M4613 2085 c0 -8 4 -12 9 -9 5 3 6 10 3 15 -9 13 -12 11 -12 -6z"/>
<path d="M435 2060 c3 -5 8 -10 11 -10 2 0 4 5 4 10 0 6 -5 10 -11 10 -5 0 -7
-4 -4 -10z"/>
<path d="M476 2043 c-4 -9 -3 -20 2 -25 6 -6 10 1 10 16 0 30 -3 32 -12 9z"/>
<path d="M4575 2020 c-2 -3 5 -6 15 -7 11 -1 22 2 24 5 3 4 -4 8 -15 8 -11 0
-22 -3 -24 -6z"/>
<path d="M435 2000 c-3 -5 -1 -10 4 -10 6 0 11 5 11 10 0 6 -2 10 -4 10 -3 0
-8 -4 -11 -10z"/>
<path d="M4540 2000 c-12 -7 -10 -9 7 -7 12 0 19 5 17 9 -6 10 -6 10 -24 -2z"/>
<path d="M478 1973 c7 -3 16 -2 19 1 4 3 -2 6 -13 5 -11 0 -14 -3 -6 -6z"/>
<path d="M4546 1964 c-5 -14 -4 -15 9 -4 17 14 19 20 6 20 -5 0 -12 -7 -15
-16z"/>
<path d="M436 1953 c-6 -14 -5 -15 5 -6 7 7 10 15 7 18 -3 3 -9 -2 -12 -12z"/>
<path d="M4460 1948 c-20 -33 -21 -47 -1 -58 12 -6 22 -5 31 3 10 10 12 8 7
-6 -5 -12 -3 -16 5 -11 7 5 9 2 6 -8 -4 -8 0 -15 7 -15 11 0 11 6 -1 29 -12
24 -18 27 -30 17 -9 -7 -14 -8 -14 -1 0 6 7 15 16 20 15 8 15 10 -1 16 -14 5
-15 9 -5 21 7 8 8 15 4 15 -5 0 -16 -10 -24 -22z m14 -17 c3 -5 -1 -14 -8 -20
-12 -10 -14 -9 -11 6 2 10 4 19 4 21 2 5 10 2 15 -7z"/>
<path d="M500 1946 c0 -2 7 -6 15 -10 8 -3 15 -1 15 4 0 6 -7 10 -15 10 -8 0
-15 -2 -15 -4z"/>
<path d="M4600 1940 c-9 -6 -10 -10 -3 -10 6 0 15 5 18 10 8 12 4 12 -15 0z"/>
<path d="M4510 1919 c0 -5 5 -7 10 -4 6 3 10 8 10 11 0 2 -4 4 -10 4 -5 0 -10
-5 -10 -11z"/>
<path d="M501 1884 c0 -11 3 -14 6 -6 3 7 2 16 -1 19 -3 4 -6 -2 -5 -13z"/>
<path d="M473 1875 c0 -8 4 -12 9 -9 5 3 6 10 3 15 -9 13 -12 11 -12 -6z"/>
<path d="M633 1835 c0 -8 4 -15 9 -15 4 0 8 7 8 15 0 8 -4 15 -8 15 -5 0 -9
-7 -9 -15z"/>
<path d="M4470 1830 c0 -5 5 -10 11 -10 5 0 7 5 4 10 -3 6 -8 10 -11 10 -2 0
-4 -4 -4 -10z"/>
<path d="M4369 1818 c0 -2 -2 -12 -4 -23 -4 -19 -3 -19 10 -2 9 13 14 15 18 5
2 -7 8 -9 13 -5 5 4 2 12 -6 17 -14 9 -29 13 -31 8z"/>
<path d="M535 1800 c3 -5 8 -10 11 -10 2 0 4 5 4 10 0 6 -5 10 -11 10 -5 0 -7
-4 -4 -10z"/>
<path d="M4460 1800 c8 -5 20 -10 25 -10 6 0 3 5 -5 10 -8 5 -19 10 -25 10 -5
0 -3 -5 5 -10z"/>
<path d="M635 1660 c3 -5 8 -10 11 -10 2 0 4 5 4 10 0 6 -5 10 -11 10 -5 0 -7
-4 -4 -10z"/>
<path d="M4427 1659 c7 -7 15 -10 18 -7 3 3 -2 9 -12 12 -14 6 -15 5 -6 -5z"/>
<path d="M756 1647 c3 -10 9 -15 12 -12 3 3 0 11 -7 18 -10 9 -11 8 -5 -6z"/>
<path d="M654 1638 c-4 -7 -4 -10 1 -6 14 13 45 -11 39 -30 -5 -14 -4 -14 4
-2 12 16 8 26 -18 40 -13 7 -21 7 -26 -2z"/>
<path d="M795 1611 c-3 -5 -2 -12 3 -15 5 -3 9 1 9 9 0 17 -3 19 -12 6z"/>
<path d="M4321 1592 c-7 -13 -6 -19 2 -19 7 0 13 9 13 19 0 10 -1 18 -3 18 -1
0 -7 -8 -12 -18z"/>
<path d="M656 1582 c-3 -4 4 -9 15 -9 23 -2 25 3 4 10 -8 4 -16 3 -19 -1z"/>
<path d="M741 1573 c-1 -6 -4 -20 -7 -30 -5 -17 -5 -17 6 0 6 10 9 23 6 30 -3
9 -5 9 -5 0z"/>
<path d="M839 1572 c9 -7 10 -11 2 -15 -7 -4 -8 -5 0 -3 15 2 13 20 -3 24 -10
3 -10 2 1 -6z"/>
<path d="M756 1531 c-4 -5 -1 -13 5 -17 8 -4 9 -3 5 4 -4 7 -3 12 3 12 5 0 12
-5 14 -10 3 -6 4 -5 3 2 -3 16 -23 22 -30 9z"/>
<path d="M873 1523 c4 -3 0 -17 -9 -31 -9 -13 -11 -21 -5 -18 6 4 11 2 11 -3
0 -15 13 -14 31 2 8 6 12 11 10 10 -10 -6 -29 20 -24 33 3 8 -1 14 -8 14 -7 0
-9 -3 -6 -7z m17 -43 c0 -5 -2 -10 -4 -10 -3 0 -8 5 -11 10 -3 6 -1 10 4 10 6
0 11 -4 11 -10z"/>
<path d="M4295 1520 c3 -5 8 -10 11 -10 2 0 4 5 4 10 0 6 -5 10 -11 10 -5 0
-7 -4 -4 -10z"/>
<path d="M4268 1503 c7 -3 16 -2 19 1 4 3 -2 6 -13 5 -11 0 -14 -3 -6 -6z"/>
<path d="M790 1489 c0 -5 -6 -7 -12 -3 -7 4 -9 3 -5 -1 13 -15 36 -14 30 1 -6
17 -13 18 -13 3z"/>
<path d="M4194 1462 c3 -5 0 -13 -6 -15 -9 -4 -10 -6 -1 -6 17 -1 25 16 12 25
-7 4 -9 3 -5 -4z"/>
<path d="M4250 1459 c0 -5 5 -7 10 -4 6 3 10 8 10 11 0 2 -4 4 -10 4 -5 0 -10
-5 -10 -11z"/>
<path d="M838 1453 c7 -3 16 -2 19 1 4 3 -2 6 -13 5 -11 0 -14 -3 -6 -6z"/>
<path d="M943 1427 c-8 -13 27 -39 44 -33 7 3 15 0 19 -7 4 -7 4 -9 -1 -5 -4
4 -14 3 -21 -3 -8 -7 -14 -7 -19 1 -3 6 -10 8 -15 5 -5 -3 -11 4 -15 15 -7 22
-13 24 -35 10 -10 -6 -11 -10 -2 -10 6 0 14 1 17 3 2 1 12 -8 20 -20 9 -13 23
-20 35 -18 20 4 24 -4 21 -37 -2 -19 14 -25 23 -9 4 5 14 8 24 6 9 -2 19 -4
22 -4 3 -1 -2 -6 -10 -11 -9 -6 -10 -10 -3 -10 6 0 14 4 18 10 3 5 12 7 20 4
8 -4 -10 19 -40 50 -31 31 -60 56 -66 56 -6 0 -7 -4 -4 -10 3 -6 -1 -7 -10 -4
-14 6 -14 8 1 19 15 11 15 12 0 12 -9 0 -20 -5 -23 -10z m104 -81 c16 -17 21
-26 13 -20 -18 12 -30 12 -49 0 -10 -6 -12 -5 -9 5 3 8 2 21 -3 30 -14 28 19
18 48 -15z"/>
<path d="M1010 1361 c0 -5 7 -12 16 -15 14 -5 15 -4 4 9 -14 17 -20 19 -20 6z"/>
<path d="M834 1416 c1 -8 5 -18 8 -22 4 -3 5 1 4 10 -1 8 -5 18 -8 22 -4 3 -5
-1 -4 -10z"/>
<path d="M4166 1403 c-6 -14 -5 -15 5 -6 7 7 10 15 7 18 -3 3 -9 -2 -12 -12z"/>
<path d="M894 1371 c0 -11 2 -18 5 -16 2 3 12 -2 22 -11 11 -10 19 -12 24 -4
4 6 1 9 -7 8 -7 -2 -12 4 -10 12 2 8 0 12 -4 8 -4 -4 -12 -1 -18 8 -10 13 -12
13 -12 -5z"/>
<path d="M4126 1367 c-16 -12 -16 -13 2 -13 10 0 19 6 19 13 0 7 -1 13 -2 13
-1 0 -9 -6 -19 -13z"/>
<path d="M856 1358 c3 -5 10 -6 15 -3 13 9 11 12 -6 12 -8 0 -12 -4 -9 -9z"/>
<path d="M4065 1347 c-14 -11 -15 -16 -5 -22 9 -6 11 -4 5 5 -6 10 -3 12 13 8
15 -4 19 -2 15 8 -6 17 -5 17 -28 1z"/>
<path d="M4032 1318 c2 -15 7 -30 11 -34 3 -3 4 6 1 22 -7 37 -16 47 -12 12z"/>
<path d="M870 1322 c0 -5 7 -9 15 -9 8 0 12 4 9 9 -3 4 -9 8 -15 8 -5 0 -9 -4
-9 -8z"/>
<path d="M1179 1298 c-1 -2 -3 -13 -4 -26 -2 -17 1 -20 11 -11 7 6 10 17 7 25
-5 13 -11 18 -14 12z"/>
<path d="M3799 1248 c-10 -18 -9 -20 5 -15 21 8 31 -10 16 -28 -7 -8 -9 -15
-4 -16 5 0 0 -4 -11 -9 -16 -7 -17 -9 -3 -9 9 -1 26 11 38 26 20 26 20 28 4
40 -10 7 -23 13 -28 13 -6 0 -4 5 4 10 9 6 10 10 3 10 -7 0 -17 -10 -24 -22z"/>
<path d="M1065 1237 c-14 -11 -15 -16 -5 -22 9 -5 11 -4 6 3 -4 7 -1 12 8 12
9 0 16 5 16 10 0 13 -3 13 -25 -3z"/>
<path d="M3940 1242 c0 -8 66 -10 73 -2 3 3 -12 6 -34 7 -21 1 -39 -2 -39 -5z"/>
<path d="M3919 1235 c-1 -3 -2 -8 -3 -12 -1 -5 -4 -13 -8 -19 -4 -6 -1 -11 5
-11 7 0 13 11 13 24 0 21 -4 31 -7 18z"/>
<path d="M3872 1196 c1 -14 5 -23 9 -20 7 4 0 44 -7 44 -2 0 -3 -11 -2 -24z"/>
<path d="M1150 1156 c4 -4 16 -4 26 2 16 9 14 10 -8 9 -15 -1 -23 -6 -18 -11z"/>
<path d="M3830 1160 c0 -5 5 -10 11 -10 5 0 7 5 4 10 -3 6 -8 10 -11 10 -2 0
-4 -4 -4 -10z"/>
<path d="M3879 1153 c-13 -16 -12 -17 4 -4 9 7 17 15 17 17 0 8 -8 3 -21 -13z"/>
<path d="M1198 1143 c7 -3 16 -2 19 1 4 3 -2 6 -13 5 -11 0 -14 -3 -6 -6z"/>
<path d="M3741 1124 c0 -11 3 -14 6 -6 3 7 2 16 -1 19 -3 4 -6 -2 -5 -13z"/>
<path d="M1300 1120 c0 -5 5 -10 10 -10 6 0 10 5 10 10 0 6 -4 10 -10 10 -5 0
-10 -4 -10 -10z"/>
<path d="M3785 1120 c3 -5 8 -10 11 -10 2 0 4 5 4 10 0 6 -5 10 -11 10 -5 0
-7 -4 -4 -10z"/>
<path d="M3821 1116 c-9 -11 -9 -16 1 -22 7 -4 10 -4 6 1 -4 4 -3 14 3 22 6 7
9 13 6 13 -2 0 -10 -6 -16 -14z"/>
<path d="M1240 1100 c-9 -6 -10 -10 -3 -10 6 0 15 5 18 10 8 12 4 12 -15 0z"/>
<path d="M1282 1099 c9 -5 15 -16 12 -23 -3 -8 -1 -17 5 -21 7 -4 8 0 4 11 -5
13 -3 15 8 9 8 -5 5 1 -5 13 -11 12 -24 22 -30 22 -6 0 -3 -5 6 -11z"/>
<path d="M3755 1100 c-3 -5 -1 -10 4 -10 6 0 11 5 11 10 0 6 -2 10 -4 10 -3 0
-8 -4 -11 -10z"/>
<path d="M3695 1060 c-3 -5 -1 -10 4 -10 6 0 11 5 11 10 0 6 -2 10 -4 10 -3 0
-8 -4 -11 -10z"/>
<path d="M1426 1032 c-3 -5 1 -9 9 -9 8 0 15 4 15 9 0 4 -4 8 -9 8 -6 0 -12
-4 -15 -8z"/>
<path d="M1388 1023 c7 -3 16 -2 19 1 4 3 -2 6 -13 5 -11 0 -14 -3 -6 -6z"/>
<path d="M1470 1000 c0 -6 7 -10 15 -10 8 0 15 2 15 4 0 2 -7 6 -15 10 -8 3
-15 1 -15 -4z"/>
<path d="M1450 980 c0 -5 5 -10 11 -10 5 0 7 5 4 10 -3 6 -8 10 -11 10 -2 0
-4 -4 -4 -10z"/>
<path d="M1510 980 c0 -5 5 -10 10 -10 6 0 10 5 10 10 0 6 -4 10 -10 10 -5 0
-10 -4 -10 -10z"/>
<path d="M3555 980 c3 -5 8 -10 11 -10 2 0 4 5 4 10 0 6 -5 10 -11 10 -5 0 -7
-4 -4 -10z"/>
<path d="M3580 960 c-9 -6 -10 -10 -3 -10 6 0 15 5 18 10 8 12 4 12 -15 0z"/>
<path d="M1455 951 c-3 -5 -2 -12 3 -15 5 -3 9 1 9 9 0 17 -3 19 -12 6z"/>
<path d="M1535 940 c-3 -5 -1 -10 4 -10 6 0 11 5 11 10 0 6 -2 10 -4 10 -3 0
-8 -4 -11 -10z"/>
<path d="M1576 932 c-2 -4 4 -8 15 -8 10 0 19 4 19 8 0 10 -27 10 -34 0z"/>
<path d="M3470 921 c0 -6 4 -13 10 -16 6 -3 7 1 4 9 -7 18 -14 21 -14 7z"/>
<path d="M1553 905 c0 -8 4 -12 9 -9 5 3 6 10 3 15 -9 13 -12 11 -12 -6z"/>
<path d="M1587 904 c7 -3 15 -5 19 -4 4 1 11 -4 16 -12 8 -11 9 -10 6 1 -2 8
-15 15 -29 17 -13 1 -18 0 -12 -2z"/>
<path d="M1633 872 c-8 -14 -8 -19 1 -19 7 0 13 9 13 19 1 10 1 18 0 18 -1 0
-7 -8 -14 -18z"/>
<path d="M3455 880 c-3 -5 -1 -10 4 -10 6 0 11 5 11 10 0 6 -2 10 -4 10 -3 0
-8 -4 -11 -10z"/>
<path d="M1575 859 c-3 -4 2 -6 10 -5 21 3 28 13 10 13 -9 0 -18 -4 -20 -8z"/>
<path d="M3390 856 c0 -2 8 -10 18 -17 15 -13 16 -12 3 4 -13 16 -21 21 -21
13z"/>
<path d="M1666 842 c-2 -4 4 -8 14 -8 10 0 16 4 14 8 -3 4 -9 8 -14 8 -5 0
-11 -4 -14 -8z"/>
<path d="M1867 839 c7 -7 15 -10 18 -7 3 3 -2 9 -12 12 -14 6 -15 5 -6 -5z"/>
<path d="M1699 818 c-11 -8 -10 -9 3 -5 9 3 19 1 22 -6 3 -9 5 -8 5 1 1 8 6
10 14 6 6 -4 8 -3 4 1 -11 13 -32 14 -48 3z"/>
<path d="M1953 823 c8 -12 -26 -46 -36 -36 -4 3 -7 2 -7 -4 0 -6 9 -13 19 -16
15 -4 18 -1 13 12 -5 14 -4 14 13 1 14 -11 17 -12 11 -1 -6 9 -5 12 3 10 7 -3
12 -8 12 -12 -1 -4 -1 -13 -1 -21 0 -9 -7 -12 -20 -9 -11 3 -20 3 -20 0 0 -2
9 -7 21 -10 15 -4 23 1 31 21 l11 27 7 -25 c6 -18 9 -20 11 -7 4 34 4 37 -6
38 -5 1 -23 11 -39 22 -16 12 -27 16 -23 10z"/>
<path d="M3260 815 c7 -8 17 -15 22 -15 5 0 3 7 -6 15 -8 8 -18 15 -22 15 -3
0 -1 -7 6 -15z"/>
<path d="M2066 794 c-3 -8 -11 -12 -17 -8 -8 4 -9 3 -5 -4 4 -7 3 -12 -2 -12
-5 0 -9 -7 -9 -16 0 -15 1 -15 12 0 7 8 15 13 18 9 4 -3 2 -12 -4 -20 -9 -10
-8 -13 1 -13 9 0 9 -4 -1 -17 -13 -16 -12 -17 3 -5 9 8 14 21 12 30 -4 11 1 9
15 -7 12 -13 21 -18 21 -11 0 6 6 10 13 7 6 -2 11 -9 10 -15 -2 -6 4 -9 13 -5
12 5 12 8 -6 20 -11 8 -25 11 -30 8 -6 -3 -10 -2 -10 3 0 17 13 21 34 10 11
-7 24 -11 29 -10 4 1 7 -3 7 -9 0 -5 4 -8 9 -4 5 3 13 -4 16 -16 4 -11 9 -18
12 -16 2 3 -2 19 -11 35 -14 28 -14 30 4 35 11 3 23 1 26 -4 7 -12 24 -11 24
1 0 6 -6 10 -14 10 -8 0 -16 7 -20 15 -3 8 -11 15 -18 15 -9 0 -8 -3 2 -10 8
-5 11 -10 5 -11 -41 -6 -55 -5 -55 5 0 6 -5 3 -11 -7 -7 -12 -14 -15 -22 -8
-12 9 -18 11 -37 11 -5 0 -7 7 -4 15 4 8 4 15 1 15 -3 0 -8 -7 -11 -16z m35
-31 c3 1 1 -2 -3 -8 -5 -5 -15 -2 -26 9 -16 18 -16 18 4 8 12 -6 23 -10 25 -9z
m59 -3 c5 9 9 8 13 -3 4 -10 0 -14 -11 -13 -9 2 -17 8 -18 15 -2 8 -1 8 3 0 4
-8 7 -8 13 1z"/>
<path d="M3336 798 c3 -4 11 -5 19 -1 21 7 19 12 -4 10 -11 0 -18 -5 -15 -9z"/>
<path d="M1696 787 c3 -10 9 -15 12 -12 3 3 0 11 -7 18 -10 9 -11 8 -5 -6z"/>
<path d="M3175 781 c-3 -5 0 -13 6 -17 7 -4 9 -3 5 4 -3 5 0 13 6 15 9 4 10 6
1 6 -6 1 -14 -3 -18 -8z"/>
<path d="M3235 781 c-3 -5 -2 -12 3 -15 5 -3 9 1 9 9 0 17 -3 19 -12 6z"/>
<path d="M3266 778 c3 -5 10 -6 15 -3 13 9 11 12 -6 12 -8 0 -12 -4 -9 -9z"/>
<path d="M1795 770 c-3 -6 1 -7 9 -4 18 7 21 14 7 14 -6 0 -13 -4 -16 -10z"/>
<path d="M2435 751 c-12 -20 35 -25 52 -6 4 4 3 5 -4 1 -6 -3 -14 -2 -18 4 -8
13 -22 13 -30 1z"/>
<path d="M3054 743 c4 -8 1 -13 -8 -13 -8 0 -17 -3 -19 -7 -3 -5 5 -8 18 -8
22 0 27 17 10 32 -4 4 -5 2 -1 -4z"/>
<path d="M1834 720 c0 -13 4 -16 10 -10 7 7 7 13 0 20 -6 6 -10 3 -10 -10z"/>
<path d="M3093 726 c0 -15 34 -14 47 2 7 9 7 9 -2 2 -6 -5 -18 -6 -28 0 -11 6
-17 5 -17 -4z"/>
<path d="M1936 718 c3 -5 10 -6 15 -3 13 9 11 12 -6 12 -8 0 -12 -4 -9 -9z"/>
<path d="M1985 720 c-3 -6 1 -7 9 -4 18 7 21 14 7 14 -6 0 -13 -4 -16 -10z"/>
<path d="M2025 720 c3 -5 8 -10 11 -10 2 0 4 5 4 10 0 6 -5 10 -11 10 -5 0 -7
-4 -4 -10z"/>
<path d="M3315 720 c3 -5 8 -10 11 -10 2 0 4 5 4 10 0 6 -5 10 -11 10 -5 0 -7
-4 -4 -10z"/>
<path d="M2177 689 c4 -13 8 -18 11 -10 2 7 -1 18 -6 23 -8 8 -9 4 -5 -13z"/>
<path d="M2677 695 c-16 -11 -16 -13 -2 -19 9 -3 14 -2 10 3 -3 5 1 11 7 14 7
2 11 7 8 10 -3 3 -13 0 -23 -8z"/>
<path d="M2835 700 c-3 -5 -1 -10 4 -10 6 0 11 5 11 10 0 6 -2 10 -4 10 -3 0
-8 -4 -11 -10z"/>
<path d="M2899 708 c-7 -25 -4 -34 12 -34 11 0 19 4 19 8 0 4 -7 8 -16 8 -8 0
-12 5 -9 10 3 6 4 10 1 10 -3 0 -6 -1 -7 -2z"/>
<path d="M2946 701 c-4 -5 3 -7 14 -4 23 6 26 13 6 13 -8 0 -17 -4 -20 -9z"/>
<path d="M2995 701 c-3 -5 -2 -12 3 -15 5 -3 9 1 9 9 0 17 -3 19 -12 6z"/>
<path d="M2085 690 c-16 -7 -17 -9 -3 -9 9 -1 20 4 23 9 7 11 7 11 -20 0z"/>
<path d="M2230 683 c7 -3 8 -9 1 -17 -8 -9 -7 -13 3 -13 17 0 14 30 -3 33 -7
2 -7 0 -1 -3z"/>
<path d="M2460 678 c0 -6 3 -8 7 -5 3 4 12 -1 20 -11 13 -15 13 -15 3 6 -11
23 -30 30 -30 10z"/>
<path d="M2386 663 c-6 -14 -5 -15 5 -6 7 7 10 15 7 18 -3 3 -9 -2 -12 -12z"/>
<path d="M2135 660 c3 -5 8 -10 11 -10 2 0 4 5 4 10 0 6 -5 10 -11 10 -5 0 -7
-4 -4 -10z"/>
<path d="M2695 649 c-4 -6 -5 -12 -2 -15 2 -3 7 2 10 11 7 17 1 20 -8 4z"/>
<path d="M2806 638 c3 -5 10 -6 15 -3 13 9 11 12 -6 12 -8 0 -12 -4 -9 -9z"/>
<path d="M2666 598 c3 -5 10 -6 15 -3 13 9 11 12 -6 12 -8 0 -12 -4 -9 -9z"/>
</g>
</svg>
