<svg xmlns="http://www.w3.org/2000/svg" width="15" height="15" viewBox="0 0 15 15"><g><g><path fill="#696969" d="M14.43 13.008l-.764.764a.894.894 0 0 1-.886.228l-.16.16c-.558.557-1.335.84-2.267.84-.568 0-1.194-.105-1.863-.318-1.666-.527-3.43-1.664-4.97-3.203C1.983 9.941.846 8.176.318 6.51c-.54-1.7-.387-3.124.426-4.028C.756 2.467 1 2.22 1 2.22a.9.9 0 0 1 .228-.886L1.992.57a.894.894 0 0 1 .636-.264c.24 0 .467.094.637.264l2.939 2.939a.9.9 0 0 1 0 1.272l-.765.764a.896.896 0 0 1-.886.229l-.288.288c-.205.205.11 1.48 1.651 3.021 1.542 1.543 2.817 1.857 3.022 1.652l.289-.289a.9.9 0 0 1 .227-.885l.765-.765a.9.9 0 0 1 1.272 0l2.94 2.939c.35.35.35.922 0 1.273zM1.864 1.97l1.47 1.47 1.458 1.458.011.012.765-.765-2.94-2.939zm10.2 11.473l-2.28-2.281-.21.21c-.218.218-.505.315-.836.315-.983 0-2.353-.861-3.458-1.967C3.803 8.243 2.76 6.294 3.628 5.426l.21-.21-2.281-2.28-.081.081c-.648.647-.755 1.791-.301 3.222.485 1.53 1.544 3.165 2.982 4.604 1.438 1.438 3.074 2.497 4.604 2.982 1.43.454 2.575.347 3.222-.3zm1.73-1.072l-2.94-2.939-.764.765 2.94 2.94.764-.766zm-1.076-5.559a.45.45 0 1 1-.9 0c0-.97-.377-1.881-1.063-2.567a3.606 3.606 0 0 0-2.567-1.064.45.45 0 1 1 0-.898c1.21 0 2.347.47 3.203 1.326a4.502 4.502 0 0 1 1.327 3.203zm2.282 0a.45.45 0 1 1-.9 0c0-1.58-.615-3.064-1.732-4.18A5.875 5.875 0 0 0 8.188.9a.45.45 0 1 1 0-.9c1.82 0 3.53.709 4.817 1.996A6.767 6.767 0 0 1 15 6.813zm-4.564 0a.45.45 0 1 1-.9 0c0-.366-.137-.695-.395-.953a1.307 1.307 0 0 0-.953-.395.45.45 0 0 1 0-.9c.609 0 1.159.227 1.59.658.43.431.658.981.658 1.59z"/></g></g></svg>