<svg xmlns="http://www.w3.org/2000/svg" width="20" height="15" viewBox="0 0 20 15"><g><g><path fill="#696969" d="M20 2.414V12.59c0 1.329-1.097 2.41-2.446 2.41H2.446C1.096 15 0 13.92 0 12.59V2.41C0 1.08 1.097 0 2.446 0h15.112c1.35 0 2.446 1.085 2.442 2.414zM18.882 12.59V2.414a1.32 1.32 0 0 0-1.328-1.309H2.446a1.32 1.32 0 0 0-1.329 1.31V12.59a1.32 1.32 0 0 0 1.329 1.308h15.112a1.32 1.32 0 0 0 1.329-1.308zm-1.357-.62c.224.208.232.559.02.778a.56.56 0 0 1-.79.021l-4.974-4.657-1.394 1.231a.565.565 0 0 1-.745.004L8.285 8.154l-5.003 4.612a.563.563 0 0 1-.381.146.575.575 0 0 1-.41-.174.547.547 0 0 1 .025-.78L7.445 7.41l-4.95-4.36a.545.545 0 0 1-.045-.779.564.564 0 0 1 .79-.044l5.355 4.722c.033.025.062.05.09.078 0 .004.005.008.01.012l1.315 1.159 6.745-5.967a.568.568 0 0 1 .79.04.548.548 0 0 1-.04.78l-4.892 4.323z"/></g></g></svg>