<?xml version="1.0" standalone="no"?>
<!DOCTYPE svg PUBLIC "-//W3C//DTD SVG 20010904//EN"
 "http://www.w3.org/TR/2001/REC-SVG-20010904/DTD/svg10.dtd">
<svg version="1.0" xmlns="http://www.w3.org/2000/svg"
 width="512.000000pt" height="512.000000pt" viewBox="0 0 512.000000 512.000000"
 preserveAspectRatio="xMidYMid meet">
<metadata>
Created by potrace 1.11, written by Peter Selinger 2001-2013
</metadata>
<g transform="translate(0.000000,512.000000) scale(0.100000,-0.100000)"
fill="#000000" stroke="none">
<path d="M2609 4844 c-20 -38 -97 -184 -171 -324 -75 -140 -163 -309 -198
-375 -34 -66 -73 -138 -85 -160 -13 -22 -46 -85 -74 -140 -29 -55 -71 -136
-95 -180 -23 -44 -69 -132 -103 -195 -33 -63 -78 -149 -100 -190 -52 -98 -132
-249 -201 -380 -30 -58 -67 -127 -82 -155 -15 -27 -58 -108 -95 -180 -37 -71
-80 -152 -95 -180 -15 -27 -51 -95 -80 -150 -100 -190 -153 -290 -190 -360
-21 -38 -68 -128 -105 -200 -37 -71 -80 -152 -95 -180 -15 -27 -52 -97 -83
-155 -30 -58 -68 -130 -84 -160 -16 -30 -60 -113 -98 -185 -37 -71 -84 -161
-105 -200 -49 -92 -125 -236 -190 -360 -29 -55 -72 -136 -96 -181 -24 -45 -44
-84 -44 -88 0 -3 1088 -6 2419 -6 l2418 0 -109 223 c-61 122 -152 308 -203
412 -99 204 -263 538 -500 1020 -81 165 -200 408 -265 540 -65 132 -181 368
-258 525 -131 267 -296 603 -585 1194 -67 137 -187 382 -267 544 l-145 294
-36 -68z m100 -786 c38 -79 137 -282 221 -453 84 -170 199 -404 255 -520 56
-115 168 -343 248 -505 79 -162 209 -425 287 -585 78 -159 184 -375 235 -480
51 -104 177 -361 279 -570 103 -209 196 -398 207 -420 l19 -40 -1892 -3
c-1040 -1 -1893 0 -1896 2 -2 3 9 29 26 58 16 29 54 100 84 158 103 196 181
345 211 400 16 30 52 98 79 150 77 145 147 278 188 355 21 39 66 124 100 190
35 66 75 143 90 170 26 48 48 90 196 370 37 72 82 157 100 190 18 33 55 105
84 160 29 55 69 132 90 170 20 39 63 120 95 180 32 61 72 137 90 170 18 33 65
123 105 200 40 77 76 145 80 150 4 6 40 73 80 150 40 77 87 167 105 200 41 76
117 220 139 263 9 17 18 32 21 32 2 0 35 -64 74 -142z"/>
</g>
</svg>
